<?xml version="1.0" encoding="UTF-8"?>
<svg xmlns="http://www.w3.org/2000/svg" version="1.1" viewBox="0 0 427.27 507.24">
  <!-- Generator: Adobe Illustrator 29.3.1, SVG Export Plug-In . SVG Version: 2.1.0 Build 151)  -->
  <defs>
    <style>
      .st0 {
        fill: #00415c;
      }

      .st1, .st2 {
        fill: #a4e9ac;
      }

      .st3 {
        isolation: isolate;
      }

      .st2 {
        mix-blend-mode: multiply;
      }
    </style>
  </defs>
  <g class="st3">
    <g id="Capa_1">
      <g>
        <path class="st1" d="M163,131.07v-53.64s3.87-.5,4.28-1.32,1.34-5.09,1.34-5.09c0,0,2.74.4,3.44-1.74s.7-3.47.7-3.47l4.94-1.87s.94,3.34,6.55,3.47l1.2,2.67-.67-19.37-19.37-4.41-16.7,24.45,1.07,62.66,13.23-2.34Z"/>
        <path class="st2" d="M163,131.07v-53.64s3.87-.5,4.28-1.32,1.34-5.09,1.34-5.09c0,0,2.74.4,3.44-1.74s.7-3.47.7-3.47l4.94-1.87s.94,3.34,6.55,3.47l1.2,2.67-.67-19.37-19.37-4.41-16.7,24.45,1.07,62.66,13.23-2.34Z"/>
        <polygon class="st0" points="168.48 32.8 168.08 18.3 160.26 19.97 158.99 18.3 158.99 13.16 167.74 10.96 167.74 1.27 172.82 0 174.76 1.87 174.76 10.22 182.57 7.82 184.24 9.49 184.24 14.9 174.89 16.77 176.03 31.4 168.48 32.8"/>
        <path class="st0" d="M158.27,88.68l1.75,1.9,3.01-.65s.55-1.2.8-1.25,1.4.95,1.4.95l6.81-1.6v3.06s-.4,1.15-.4,2.61c0,0-4.96.4-5.36,4.21s-.5,7.97-.5,7.97c0,0-.9,1.75-1.8,2.71s-5.81,4.31-4.61,7.42c0,0,2.66,5.26,14.98,4.96,12.33-.3,14.63-3.76,15.78-5.01,0,0,1.55-2.76-2.46-5.56-4.01-2.81-5.41-7.31-5.16-9.92.25-2.61,1-5.71-5.46-6.96,0,0-.25-2.76-.45-4.21s-.9-1.95-.9-1.95l12.98-1.8-1.3-9.42-29.11,6.41v6.16Z"/>
        <path class="st1" d="M407.83,380.78s-10.62-16.57-11.19-16.97c-.57-.4-2.04-.27-2.04-.27,0,0-38.14-216.31-38.51-218.01-.37-1.71-2.64-1.27-2.64-1.27-4.41.43-43.29,6.31-43.29,6.31-.53-2.21-3.27-3.21-3.27-3.21l-75.22-8.28-4.91-62.78-6.44-11.31-30.76-18.61v-2.04l-7.85-10.09-5.88-4.14-17.63,4.81-4.54,5.61v7.48s-24.85,29.26-26.45,30.86c-1.61,1.6-4.69,7.21-4.69,7.21,0,0-.79,60.92-.16,63.2.64,2.27-.9,3.21-.9,3.21l-57.07,25s-.6,1.2-1.5,2.56c-.9,1.35-3.41,2.25-6.01,2.35-2.6.1-2.31-.65-2.71-.9-.4-.25-1.05-.7-1.05-.7l-20.79,2.25c-.15,2.56-2.61,28.91-2.61,28.91-1.35.45-2.15,3.66-2.15,3.66l-10.39,146.63-.8,1.47s-2.21-.13-3.21,0c-1,.13-3.07,24.92-3.07,24.92L.37,507.24h426.9l-19.44-126.46ZM153.71,131.07l.65-63.43s4.36,1.3,6.16-7.41c0,0,5.21,1.4,4.81-6.01,0,0,2.21-2.21,7.11-1.8,0,0,1.1,4.21,5.71,3.31,0,0-.8,4.81,5.41,3.81l6.81,65.53-36.68,6.01Z"/>
        <path class="st2" d="M90.32,507.24l-1-126.27s.99-56.87,1.13-60.07c.14-3.2-2.15-29.62,14.99-54.54,0,0,20.92-34.8,67.2-44.11,0,0,44.45-6.4,77.33,22.94,0,0,25.4,20.72,33.02,56.31l19.49,205.74H90.32Z"/>
        <path class="st0" d="M102,507.24l-1.33-121.65s.94-54.64,1.07-57.72-2.04-28.46,14.2-52.41c0,0,19.81-33.43,63.63-42.39,0,0,42.09-6.15,73.22,22.05,0,0,24.05,19.91,31.26,54.11l18.43,198H102Z"/>
        <polygon class="st2" points="231.67 139.09 226.06 138.28 220.32 65 226.76 76.31 231.67 139.09"/>
      </g>
    </g>
  </g>
</svg>