<?xml version="1.0" encoding="UTF-8"?>
<svg xmlns="http://www.w3.org/2000/svg" xmlns:xlink="http://www.w3.org/1999/xlink" width="px" height="200px" viewBox="0 0 227 200" version="1.1">
<g id="surface1">
<path style=" stroke:none;fill-rule:nonzero;fill:rgb(91.764706%,75.294119%,45.882353%);fill-opacity:1;" d="M 178.285156 140.773438 C 178.285156 141.273438 178.53125 144.179688 177.871094 146.835938 C 177.207031 149.53125 176.628906 152.3125 176.503906 152.851562 C 176.382812 153.390625 176.503906 154.304688 176.585938 154.84375 C 176.710938 155.300781 177.207031 158.703125 176.878906 161.109375 C 176.503906 163.476562 176.007812 167.335938 175.96875 168 C 175.96875 168.621094 175.429688 172.480469 175.429688 172.480469 C 175.429688 172.480469 169.351562 174.140625 161.863281 174.515625 C 154.421875 174.929688 145.613281 174.101562 139.945312 169.285156 C 139.945312 169.285156 140.359375 164.636719 140.484375 163.101562 C 140.609375 161.527344 140.691406 160.03125 140.484375 158.539062 C 140.277344 157.042969 140.359375 155.632812 140.484375 155.300781 C 140.484375 154.96875 140.402344 153.265625 140.320312 153.101562 C 140.234375 152.933594 140.152344 149.40625 140.152344 148.164062 C 140.152344 146.917969 140.152344 143.058594 140.320312 142.1875 C 140.484375 141.316406 140.566406 138.492188 140.648438 137.871094 C 140.773438 137.332031 140.359375 135.917969 140.648438 134.800781 C 140.9375 133.636719 141.0625 132.515625 141.0625 132.183594 L 141.0625 128.699219 C 141.0625 128.117188 140.816406 123.925781 140.898438 122.597656 C 140.980469 121.226562 141.105469 119.566406 141.105469 119.445312 C 141.105469 119.320312 141.105469 115.128906 141.476562 113.300781 C 141.847656 111.476562 142.136719 108.734375 142.136719 108.320312 C 142.136719 107.90625 142.511719 106.785156 142.550781 106.203125 C 142.59375 105.625 142.34375 103.632812 142.550781 103.175781 C 142.757812 102.761719 142.964844 102.636719 142.964844 102.054688 C 142.964844 101.472656 142.964844 100.269531 143.132812 99.648438 C 143.339844 99.023438 143.503906 98.113281 143.542969 97.820312 C 143.667969 97.53125 144.082031 96.121094 144.164062 95.289062 C 144.164062 94.460938 144.164062 93.046875 144.414062 92.425781 C 144.578125 91.804688 145.035156 90.722656 145.28125 89.894531 C 145.53125 89.0625 145.695312 88.191406 145.859375 87.40625 C 146.066406 86.65625 146.398438 85.785156 146.851562 85.039062 C 147.308594 84.292969 147.640625 83.585938 147.640625 82.964844 C 147.640625 82.339844 147.84375 82.257812 147.84375 81.761719 C 147.84375 81.261719 147.84375 80.597656 147.84375 80.308594 C 147.929688 79.976562 148.09375 80.058594 148.011719 79.394531 C 147.886719 78.773438 147.84375 78.355469 147.84375 78.234375 C 147.84375 78.109375 147.722656 76.820312 148.050781 76.363281 C 148.382812 75.949219 148.382812 75.246094 148.464844 74.789062 C 148.546875 74.371094 148.34375 73.460938 148.464844 73.042969 C 148.589844 72.628906 148.382812 71.46875 148.257812 70.761719 C 148.136719 70.015625 148.09375 67.734375 148.136719 67.316406 C 148.175781 66.902344 148.21875 66.570312 148.21875 65.988281 C 148.21875 65.410156 148.21875 63.996094 148.34375 63.542969 C 148.464844 63.085938 148.878906 60.71875 148.921875 60.261719 C 148.921875 59.847656 149.128906 58.269531 149.167969 57.6875 C 149.25 57.109375 149.625 53 149.707031 52.460938 C 149.789062 51.960938 150.121094 49.929688 150.367188 49.390625 C 150.617188 48.847656 151.03125 45.40625 151.113281 45.074219 C 151.195312 44.78125 152.972656 38.351562 153.097656 38.019531 C 153.261719 37.644531 153.71875 35.816406 153.84375 35.527344 C 154.007812 35.238281 154.503906 33.285156 154.835938 32.582031 C 155.207031 31.875 158.390625 27.0625 158.558594 26.769531 C 158.722656 26.480469 160.914062 24.65625 161.824219 24.40625 C 162.773438 24.15625 165.007812 23.867188 165.378906 23.699219 C 165.503906 23.617188 166.414062 23.117188 167.613281 22.539062 C 169.679688 21.5 172.660156 20.296875 173.941406 20.917969 C 173.941406 20.917969 176.382812 23.535156 176.421875 25.898438 C 176.421875 28.265625 176.214844 28.679688 176.421875 29.386719 C 176.628906 30.089844 175.679688 34.28125 175.925781 34.90625 C 176.175781 35.570312 176.546875 36.109375 176.878906 36.398438 C 177.25 36.773438 177.746094 38.390625 177.496094 42.292969 C 177.25 46.152344 176.835938 46.773438 177 47.148438 C 177.167969 47.523438 177.414062 47.894531 177.332031 48.351562 C 177.25 48.808594 176.132812 53.496094 176.132812 53.996094 C 176.132812 54.492188 176.132812 55.324219 175.96875 55.90625 C 175.800781 56.484375 174.933594 61.964844 174.890625 62.089844 C 174.851562 62.214844 173.320312 70.554688 173.527344 72.421875 C 173.777344 74.332031 173.734375 75.867188 173.898438 76.40625 C 174.066406 76.988281 174.3125 79.230469 174.480469 79.976562 C 174.644531 80.722656 174.5625 81.550781 174.480469 82.671875 C 174.480469 83.835938 174.890625 85.414062 175.140625 86.367188 C 175.386719 87.320312 176.050781 88.855469 176.214844 90.019531 C 176.382812 91.222656 176.421875 92.050781 176.503906 92.632812 C 176.585938 93.171875 176.960938 93.296875 176.835938 94.5 C 176.671875 95.703125 177.082031 98.777344 176.835938 100.3125 C 176.503906 101.847656 176.214844 104.710938 176.339844 106.039062 C 176.464844 107.324219 176.339844 110.355469 176.339844 110.851562 C 176.464844 111.308594 176.753906 111.929688 176.585938 112.472656 C 176.421875 113.011719 176.421875 114.585938 176.421875 115.042969 C 176.421875 115.5 176.585938 116.457031 176.792969 116.910156 C 177 117.367188 177.167969 117.367188 177.207031 118.902344 C 177.25 120.4375 178.160156 123.96875 178.242188 125.210938 C 178.367188 126.457031 178.613281 133.679688 178.574219 136.335938 C 178.488281 138.992188 178.449219 140.320312 178.40625 140.816406 L 178.488281 140.691406 Z M 178.285156 140.773438 "/>
<path style=" stroke:none;fill-rule:nonzero;fill:rgb(95.686275%,92.156863%,77.64706%);fill-opacity:1;" d="M 161.660156 95.828125 C 163.683594 109.898438 169.433594 98.359375 164.46875 111.269531 C 159.507812 124.175781 159.507812 121.101562 159.507812 124.175781 C 159.507812 127.246094 158.679688 128.117188 159.507812 129.777344 C 160.335938 131.480469 160.625 132.019531 161.492188 134.011719 C 162.320312 136.003906 163.5625 134.550781 163.476562 137.664062 C 163.394531 140.734375 163.5625 139.65625 163.476562 142.976562 C 163.394531 146.335938 161.574219 147.746094 163.476562 152.230469 C 165.378906 156.710938 164.675781 163.1875 163.476562 168.25 C 162.277344 173.230469 162.566406 172.359375 161.742188 174.558594 C 154.296875 174.972656 145.488281 174.140625 139.824219 169.328125 C 139.824219 169.328125 140.234375 164.679688 140.359375 163.144531 C 140.484375 161.566406 140.566406 160.074219 140.359375 158.578125 C 140.152344 157.085938 140.234375 155.675781 140.359375 155.34375 C 140.359375 155.011719 140.277344 153.308594 140.195312 153.140625 C 140.113281 152.976562 140.03125 149.449219 140.03125 148.203125 C 140.03125 146.957031 140.03125 143.097656 140.195312 142.226562 C 140.359375 141.355469 140.441406 138.535156 140.527344 137.910156 C 140.648438 137.371094 140.234375 135.960938 140.527344 134.839844 C 140.816406 133.71875 140.9375 132.558594 140.9375 132.226562 L 140.9375 128.738281 C 140.9375 128.160156 140.691406 123.96875 140.773438 122.640625 C 140.855469 121.269531 140.980469 119.609375 140.980469 119.484375 C 140.980469 119.359375 140.980469 115.167969 141.351562 113.34375 C 141.726562 111.515625 142.015625 108.777344 142.015625 108.363281 C 142.015625 107.949219 142.386719 106.828125 142.429688 106.246094 C 142.46875 105.664062 142.222656 103.671875 142.429688 103.214844 C 142.636719 102.800781 142.839844 102.675781 142.839844 102.097656 C 142.839844 101.515625 142.839844 100.3125 143.007812 99.6875 C 143.214844 99.066406 143.378906 98.152344 143.421875 97.863281 C 143.542969 97.570312 143.957031 96.160156 144.039062 95.332031 C 144.039062 94.5 144.039062 93.089844 144.289062 92.46875 C 144.453125 91.84375 144.910156 90.765625 145.15625 89.9375 C 145.40625 89.105469 145.570312 88.234375 145.738281 87.445312 C 145.941406 86.699219 146.273438 85.828125 146.730469 85.082031 C 147.183594 84.332031 147.515625 83.628906 147.515625 83.003906 C 147.515625 82.382812 147.722656 82.300781 147.722656 81.800781 C 147.722656 81.304688 147.722656 80.640625 147.722656 80.347656 C 147.804688 80.015625 147.96875 80.101562 147.886719 79.4375 C 147.761719 78.8125 147.722656 78.398438 147.722656 78.273438 C 147.722656 78.148438 147.597656 76.863281 147.929688 76.40625 C 148.257812 75.992188 148.257812 75.285156 148.34375 74.828125 C 148.425781 74.414062 148.21875 73.5 148.34375 73.085938 C 148.464844 72.671875 148.257812 71.507812 148.136719 70.804688 C 148.011719 70.058594 147.96875 67.773438 148.011719 67.359375 C 148.050781 66.945312 148.09375 66.613281 148.09375 66.03125 C 148.09375 65.449219 148.09375 64.039062 148.21875 63.582031 C 148.34375 63.125 148.753906 60.761719 148.796875 60.304688 C 148.796875 59.890625 149.003906 58.3125 149.046875 57.730469 C 149.128906 57.148438 149.5 53.042969 149.582031 52.5 C 149.664062 52.003906 149.996094 49.96875 150.246094 49.429688 C 150.492188 48.890625 150.90625 45.445312 150.988281 45.113281 C 151.070312 44.824219 152.851562 38.390625 152.972656 38.058594 C 153.140625 37.6875 153.59375 35.859375 153.71875 35.570312 C 153.882812 35.277344 154.378906 33.328125 154.710938 32.621094 C 155.082031 31.917969 158.265625 27.101562 158.433594 26.8125 C 158.597656 26.523438 160.789062 24.695312 161.699219 24.445312 C 162.652344 24.199219 164.882812 23.90625 165.257812 23.742188 C 165.378906 23.660156 166.289062 23.160156 167.488281 22.578125 C 167.488281 22.578125 164.800781 26.023438 164.265625 29.179688 C 163.726562 32.375 165.089844 27.765625 164.265625 34.40625 C 163.4375 41.089844 166.25 35.527344 164.097656 43.039062 C 162.03125 50.59375 160.582031 51.878906 162.566406 55.574219 C 164.554688 59.265625 164.800781 59.015625 165.917969 65.199219 C 167.035156 71.386719 168.480469 74.457031 167.488281 78.441406 C 166.496094 82.425781 167.902344 80.679688 165.917969 85.746094 C 163.933594 90.808594 159.550781 81.800781 161.617188 95.828125 L 161.617188 95.703125 Z M 161.660156 95.828125 "/>
<path style=" stroke:none;fill-rule:nonzero;fill:rgb(91.764706%,75.294119%,45.882353%);fill-opacity:1;" d="M 133.867188 109.855469 C 133.785156 110.230469 133.453125 111.433594 133.535156 112.59375 C 133.621094 113.757812 133.535156 113.21875 133.535156 113.589844 L 133.535156 114.917969 C 133.535156 115.128906 133.414062 115.832031 133.535156 116.039062 C 133.660156 116.246094 133.949219 117.285156 133.535156 118.28125 C 133.535156 118.28125 133.828125 118.695312 133.703125 119.070312 C 133.578125 119.484375 133.496094 120.148438 133.535156 120.4375 C 133.621094 120.769531 133.621094 121.644531 133.371094 122.429688 C 133.125 123.21875 133.371094 123.675781 133.371094 123.96875 C 133.453125 124.257812 133.785156 125.003906 133.535156 126.125 C 133.289062 127.246094 133.125 128.199219 133.207031 128.738281 C 133.289062 129.277344 133.414062 129.488281 133.535156 129.902344 C 133.621094 130.316406 133.703125 132.808594 133.621094 133.886719 C 133.535156 134.964844 133.371094 136.625 133.371094 136.625 C 133.371094 136.625 132.957031 140.402344 132.460938 142.226562 C 132.046875 144.054688 131.386719 145.839844 131.386719 147.5 C 131.386719 149.160156 131.222656 153.433594 131.015625 154.636719 C 130.808594 155.839844 130.433594 158.496094 130.601562 159.449219 C 130.847656 160.40625 130.269531 162.976562 130.269531 162.976562 C 130.269531 162.976562 128.410156 163.394531 126.257812 163.226562 C 126.050781 163.226562 125.886719 163.226562 125.679688 163.226562 C 123.445312 163.019531 119.847656 162.605469 119.640625 162.273438 C 119.351562 161.898438 118.691406 162.191406 118.691406 160.488281 C 118.691406 160.488281 117.53125 155.21875 117.449219 153.308594 C 117.324219 151.398438 116.996094 146.957031 116.996094 146.085938 C 116.996094 145.214844 116.621094 141.5625 116.746094 140.773438 C 116.871094 139.988281 117.324219 138.242188 117.449219 137.621094 C 117.574219 137.039062 117.78125 134.34375 117.863281 133.886719 C 117.988281 133.386719 117.988281 131.894531 118.277344 131.105469 C 118.605469 130.359375 118.648438 128.824219 118.691406 128.28125 C 118.730469 127.742188 118.484375 126.582031 118.484375 125.917969 C 118.484375 125.253906 118.8125 124.007812 118.691406 123.925781 C 118.566406 123.84375 118.359375 122.554688 118.359375 121.933594 L 118.359375 119.941406 C 118.359375 119.816406 118.359375 119.652344 118.359375 119.402344 C 118.359375 118.988281 118.277344 118.65625 118.277344 118.324219 L 118.277344 115.5 C 118.277344 115.375 118.402344 114.046875 118.441406 113.839844 C 118.441406 113.632812 118.691406 112.554688 118.773438 112.472656 C 118.855469 112.386719 119.0625 111.929688 119.105469 111.808594 C 119.105469 111.683594 119.226562 111.390625 119.394531 111.269531 C 119.558594 111.144531 119.640625 110.894531 119.683594 110.8125 C 119.683594 110.6875 119.515625 109.730469 119.683594 109.441406 C 119.847656 109.152344 119.972656 108.984375 119.929688 108.777344 C 119.929688 108.570312 119.808594 108.070312 119.929688 107.738281 C 120.011719 107.40625 120.136719 106.621094 120.136719 106.410156 C 120.136719 106.203125 120.507812 105 120.921875 104.75 C 121.378906 104.503906 121.792969 104.335938 121.914062 104.210938 C 122.082031 104.046875 122.164062 103.964844 122.207031 103.839844 C 122.207031 103.714844 122.992188 103.214844 123.40625 103.132812 C 123.816406 103.050781 124.605469 103.007812 125.015625 103.132812 L 125.101562 103.132812 C 125.515625 103.300781 125.84375 103.507812 126.214844 103.589844 C 126.628906 103.714844 127.746094 103.839844 128.035156 103.714844 C 128.367188 103.632812 128.699219 103.214844 129.195312 103.175781 C 129.691406 103.175781 130.351562 103.09375 130.640625 103.09375 C 130.929688 103.09375 131.386719 103.09375 131.675781 103.257812 C 131.964844 103.425781 132.171875 103.425781 132.542969 103.632812 C 132.917969 103.839844 132.875 104.003906 132.957031 104.378906 C 133.039062 104.75 133.207031 105.707031 133.328125 106.203125 C 133.453125 106.660156 133.496094 107.117188 133.496094 107.285156 C 133.496094 107.449219 133.621094 107.53125 133.578125 107.90625 C 133.578125 108.320312 133.453125 108.402344 133.578125 108.859375 C 133.660156 109.277344 133.910156 109.730469 133.828125 110.0625 L 133.992188 110.0625 Z M 133.867188 109.855469 "/>
<path style=" stroke:none;fill-rule:nonzero;fill:rgb(95.686275%,92.156863%,77.64706%);fill-opacity:1;" d="M 127.417969 124.214844 C 125.183594 126.832031 123.15625 129.902344 123.28125 130.234375 C 123.445312 130.605469 125.886719 134.300781 125.886719 134.300781 C 125.886719 134.300781 125.347656 136.085938 125.886719 137 C 126.421875 137.910156 126.714844 138.699219 127.003906 139.324219 C 127.292969 139.945312 127.417969 139.613281 127.375 140.773438 C 127.332031 141.9375 127.210938 142.558594 127.167969 143.015625 C 127.085938 143.515625 126.050781 152.476562 125.925781 154.304688 C 125.761719 156.128906 126.300781 157.457031 126.300781 158.289062 C 126.300781 159.117188 125.925781 162.9375 125.925781 162.9375 C 123.695312 162.730469 120.097656 162.3125 119.890625 161.980469 C 119.601562 161.609375 118.9375 161.898438 118.9375 160.199219 C 118.9375 160.199219 117.78125 154.925781 117.699219 153.019531 C 117.574219 151.109375 117.242188 146.667969 117.242188 145.796875 C 117.242188 144.925781 116.871094 141.273438 116.996094 140.484375 C 117.117188 139.695312 117.574219 137.953125 117.699219 137.332031 C 117.820312 136.75 118.027344 134.050781 118.109375 133.59375 C 118.234375 133.097656 118.234375 131.601562 118.523438 130.816406 C 118.855469 130.066406 118.898438 128.53125 118.9375 127.992188 C 118.980469 127.453125 118.730469 126.292969 118.730469 125.628906 C 118.730469 124.964844 119.0625 123.71875 118.9375 123.636719 C 118.8125 123.550781 118.605469 122.265625 118.605469 121.644531 L 118.605469 119.652344 C 118.605469 119.527344 118.605469 119.359375 118.605469 119.113281 C 118.605469 118.695312 118.523438 118.363281 118.523438 118.03125 L 118.523438 115.210938 C 118.523438 115.085938 118.648438 113.757812 118.691406 113.550781 C 118.691406 113.34375 118.9375 112.261719 119.019531 112.179688 C 119.105469 112.097656 119.308594 111.640625 119.351562 111.515625 C 119.351562 111.390625 119.476562 111.101562 119.640625 110.976562 C 119.808594 110.851562 119.890625 110.605469 119.929688 110.519531 C 119.929688 110.394531 119.765625 109.441406 119.929688 109.152344 C 120.097656 108.859375 120.21875 108.695312 120.179688 108.488281 C 120.179688 108.28125 120.054688 107.78125 120.179688 107.449219 C 120.261719 107.117188 120.386719 106.328125 120.386719 106.121094 C 120.386719 105.914062 120.757812 104.710938 121.171875 104.460938 C 121.625 104.210938 122.039062 104.046875 122.164062 103.921875 C 122.328125 103.757812 122.410156 103.671875 122.453125 103.546875 C 122.453125 103.425781 123.238281 102.925781 123.652344 102.84375 C 124.066406 102.761719 124.851562 102.71875 125.265625 102.84375 L 125.347656 102.84375 C 125.183594 103.589844 125.058594 104.503906 125.140625 105.414062 C 125.347656 107.65625 125.597656 108.777344 125.96875 109.730469 C 126.214844 110.3125 126.339844 111.058594 126.339844 111.890625 C 126.339844 113.136719 126.628906 111.476562 126.339844 113.589844 C 126.050781 115.667969 125.308594 114.835938 125.804688 116.414062 C 126.300781 117.992188 126.546875 118.117188 126.835938 118.488281 C 127.125 118.902344 127.042969 117.699219 127.457031 120.023438 C 127.871094 122.347656 129.773438 121.558594 127.539062 124.175781 L 127.539062 124.339844 Z M 127.417969 124.214844 "/>
<path style=" stroke:none;fill-rule:nonzero;fill:rgb(91.764706%,75.294119%,45.882353%);fill-opacity:1;" d="M 199.707031 167.5 C 199.707031 167.5 198.671875 167.917969 197.886719 168.125 C 197.636719 168.207031 197.472656 168.25 197.308594 168.25 C 196.519531 168.25 196.023438 168.457031 194.992188 168.25 C 193.957031 168.042969 192.714844 167.957031 192.179688 167.75 C 191.640625 167.542969 190.648438 167.335938 190.648438 167.335938 C 190.648438 167.335938 190.648438 163.0625 191.144531 161.359375 C 191.601562 159.65625 192.59375 157.335938 192.800781 156.917969 C 193.003906 156.503906 193.585938 155.09375 193.957031 154.679688 C 194.328125 154.261719 194.410156 153.472656 195.03125 153.597656 C 195.03125 153.597656 195.320312 153.265625 195.652344 153.101562 C 195.902344 152.933594 196.148438 152.851562 196.4375 152.894531 C 196.894531 152.976562 197.308594 153.140625 197.597656 153.433594 C 198.011719 153.847656 198.507812 154.347656 198.710938 154.59375 C 198.917969 154.84375 199.332031 155.714844 199.414062 156.753906 C 199.5 157.789062 199.664062 160.03125 199.664062 161.441406 C 199.664062 162.855469 199.789062 165.21875 199.828125 165.632812 L 199.828125 167.542969 Z M 199.707031 167.5 "/>
<path style=" stroke:none;fill-rule:nonzero;fill:rgb(95.686275%,92.156863%,77.64706%);fill-opacity:1;" d="M 197.886719 168.164062 C 197.636719 168.25 197.472656 168.289062 197.308594 168.289062 C 196.519531 168.289062 196.023438 168.496094 194.992188 168.289062 C 193.957031 168.082031 192.714844 168 192.179688 167.792969 C 191.640625 167.585938 190.648438 167.378906 190.648438 167.378906 C 190.648438 167.378906 190.648438 163.101562 191.144531 161.402344 C 191.601562 159.699219 192.59375 157.375 192.800781 156.960938 C 193.003906 156.546875 193.585938 155.132812 193.957031 154.71875 C 194.328125 154.304688 194.410156 153.515625 195.03125 153.640625 C 195.03125 153.640625 195.320312 153.308594 195.652344 153.140625 C 195.652344 153.433594 195.570312 153.683594 195.652344 154.015625 C 195.777344 154.800781 195.527344 155.011719 195.902344 155.507812 C 196.273438 156.007812 196.480469 156.171875 196.5625 156.710938 C 196.6875 157.210938 196.933594 157.292969 196.6875 157.914062 C 196.480469 158.453125 196.023438 158.164062 196.191406 159.117188 C 196.355469 160.03125 196.480469 159.574219 196.4375 160.363281 C 196.4375 161.152344 196.3125 161.566406 196.3125 161.609375 C 196.3125 161.734375 196.066406 162.9375 196.066406 163.226562 C 196.066406 163.519531 195.941406 164.304688 196.355469 164.847656 C 196.769531 165.386719 196.976562 165.34375 196.976562 166.050781 C 196.976562 166.753906 197.101562 167.085938 197.101562 167.085938 C 197.101562 167.085938 197.265625 167.292969 197.472656 167.5 C 197.597656 167.667969 197.886719 168.082031 197.96875 168.332031 L 197.96875 168.207031 Z M 197.886719 168.164062 "/>
<path style=" stroke:none;fill-rule:nonzero;fill:rgb(91.764706%,75.294119%,45.882353%);fill-opacity:1;" d="M 215.132812 165.21875 L 215.132812 166.589844 C 215.132812 166.589844 214.222656 166.671875 213.105469 166.714844 C 211.65625 166.714844 209.835938 166.714844 209.175781 166.296875 C 207.976562 165.632812 208.761719 158.746094 208.804688 158.082031 C 208.804688 157.417969 208.804688 155.839844 208.722656 155.425781 C 208.636719 155.011719 208.347656 154.015625 208.347656 154.015625 C 208.347656 154.015625 208.429688 152.808594 208.183594 152.230469 C 207.933594 151.691406 207.769531 150.03125 207.851562 149.492188 C 207.933594 148.949219 208.019531 148.535156 208.101562 147.953125 C 208.101562 147.375 208.226562 147.167969 208.390625 146.378906 C 208.554688 145.589844 208.515625 144.800781 208.597656 144.425781 C 208.679688 144.054688 208.886719 143.722656 208.96875 143.597656 C 209.050781 143.472656 209.050781 142.851562 209.300781 142.558594 C 209.546875 142.269531 209.753906 140.773438 210.417969 140.277344 C 210.996094 139.777344 211.121094 139.613281 211.53125 139.738281 C 211.945312 139.902344 212.609375 140.195312 212.980469 140.941406 C 213.394531 141.730469 213.433594 142.476562 213.601562 143.308594 C 213.765625 144.09375 213.601562 144.261719 213.890625 145.257812 C 214.179688 146.253906 214.179688 146.710938 214.261719 147.539062 C 214.261719 148.371094 214.71875 149.367188 214.839844 149.863281 C 214.925781 150.402344 215.046875 153.140625 214.964844 154.136719 C 214.882812 155.132812 214.964844 157.042969 214.964844 157.875 C 214.964844 158.703125 214.964844 160.113281 215.171875 160.820312 C 215.335938 161.527344 215.171875 161.859375 215.171875 162.4375 C 215.171875 163.019531 215.046875 163.558594 215.171875 164.058594 C 215.253906 164.515625 215.296875 164.554688 215.296875 165.136719 L 215.214844 165.136719 Z M 215.132812 165.21875 "/>
<path style=" stroke:none;fill-rule:nonzero;fill:rgb(95.686275%,92.156863%,77.64706%);fill-opacity:1;" d="M 213.0625 166.132812 L 213.0625 166.714844 C 211.617188 166.714844 209.796875 166.714844 209.132812 166.296875 C 207.933594 165.632812 208.722656 158.746094 208.761719 158.082031 C 208.761719 157.417969 208.761719 155.839844 208.679688 155.425781 C 208.597656 155.011719 208.308594 154.015625 208.308594 154.015625 C 208.308594 154.015625 208.390625 152.808594 208.140625 152.230469 C 207.894531 151.691406 207.726562 150.03125 207.8125 149.492188 C 207.894531 148.949219 207.976562 148.535156 208.058594 147.953125 C 208.058594 147.375 208.183594 147.167969 208.347656 146.378906 C 208.515625 145.589844 208.472656 144.800781 208.554688 144.425781 C 208.636719 144.054688 208.84375 143.722656 208.925781 143.597656 C 209.011719 143.472656 209.011719 142.851562 209.257812 142.558594 C 209.507812 142.269531 209.714844 140.773438 210.375 140.277344 C 210.953125 139.777344 211.078125 139.613281 211.492188 139.738281 C 211.410156 140.441406 211.328125 141.5625 211.203125 142.0625 C 210.996094 142.851562 210.914062 142.0625 210.914062 143.347656 C 210.914062 144.632812 210.789062 144.46875 210.914062 145.175781 C 211.035156 145.878906 210.914062 145.546875 211.203125 146.335938 C 211.492188 147.167969 211.65625 147.332031 211.699219 148.039062 C 211.699219 148.742188 211.53125 148.949219 211.699219 149.53125 C 211.863281 150.113281 211.863281 150.277344 211.863281 150.941406 L 211.863281 152.355469 C 211.863281 153.101562 212.070312 152.476562 211.863281 153.472656 C 211.65625 154.46875 211.285156 156.378906 212.113281 157.292969 C 212.9375 158.246094 212.980469 158.082031 213.023438 158.746094 C 213.023438 159.410156 213.269531 159.324219 213.023438 160.03125 C 212.773438 160.738281 212.484375 159.78125 212.730469 161.402344 C 213.023438 162.976562 213.144531 162.976562 213.144531 163.519531 L 213.144531 166.007812 Z M 213.0625 166.132812 "/>
<path style=" stroke:none;fill-rule:nonzero;fill:rgb(91.764706%,75.294119%,45.882353%);fill-opacity:1;" d="M 89.203125 84.789062 L 89.328125 84.664062 C 90.320312 85.328125 89.988281 85.867188 89.988281 85.867188 C 89.78125 86.617188 88.914062 86.242188 88.914062 86.242188 C 89.453125 86.410156 89.246094 86.863281 89.246094 86.863281 C 88.292969 88.277344 87.054688 87.613281 87.054688 87.613281 C 85.648438 87.238281 84.695312 87.40625 82.875 87.984375 C 81.058594 88.566406 80.644531 89.851562 79.980469 91.179688 C 79.320312 92.507812 80.1875 94.792969 80.726562 97.117188 C 81.179688 99.480469 80.269531 101.929688 79.238281 103.964844 C 78.203125 105.996094 75.019531 110.4375 75.019531 110.4375 C 75.019531 110.4375 71.542969 113.550781 70.179688 116.703125 C 68.816406 119.898438 66.128906 120.730469 63.851562 121.976562 C 61.621094 123.179688 60.171875 123.261719 59.757812 123.425781 C 59.386719 123.636719 59.179688 124.671875 59.097656 125.253906 C 58.972656 125.835938 58.476562 128.53125 58.476562 128.78125 C 58.476562 129.03125 58.226562 129.777344 58.023438 130.605469 C 57.816406 131.480469 57.441406 136.667969 57.441406 136.667969 L 56.574219 141.523438 C 56.574219 141.523438 56.617188 141.894531 56.738281 142.1875 C 56.863281 142.476562 56.699219 143.265625 56.492188 143.554688 C 56.285156 143.847656 56.492188 144.386719 56.699219 144.84375 C 56.90625 145.296875 57.113281 146.210938 57.070312 146.417969 C 57.027344 146.625 57.609375 147.914062 57.648438 148.246094 C 57.691406 148.578125 57.816406 148.578125 58.1875 148.617188 C 58.558594 148.660156 59.386719 149.699219 59.386719 149.699219 C 58.226562 150.070312 57.691406 149.699219 57.691406 149.699219 C 57.855469 150.070312 57.320312 149.945312 57.320312 149.945312 C 54.921875 149.78125 54.257812 149.199219 54.257812 149.199219 C 53.308594 149.367188 52.976562 148.660156 52.894531 148.578125 C 52.8125 148.496094 52.230469 143.679688 52.230469 143.679688 C 52.230469 143.679688 52.191406 139.777344 51.28125 138.949219 C 50.414062 138.117188 50.082031 134.714844 50.082031 134.300781 C 50.082031 133.886719 48.511719 125.792969 48.511719 125.792969 C 48.34375 126.25 46.648438 129.238281 43.878906 129.488281 C 41.066406 129.734375 39.082031 127.289062 38.378906 126.871094 C 37.632812 126.457031 37.34375 126.292969 37.179688 124.714844 C 37.011719 123.136719 36.722656 122.265625 36.722656 122.265625 C 36.722656 122.265625 36.144531 122.390625 36.0625 122.597656 C 35.980469 122.804688 35.027344 123.636719 34.988281 123.675781 C 34.945312 123.71875 34.945312 124.089844 35.027344 124.339844 C 35.109375 124.589844 35.152344 125.710938 35.152344 125.710938 C 35.152344 125.710938 33.871094 126.914062 33.539062 127.371094 C 33.292969 127.828125 33.539062 128.242188 33.539062 129.03125 C 33.539062 129.820312 33.167969 130.980469 33 131.894531 C 32.835938 132.808594 32.464844 133.386719 31.800781 134.757812 C 31.140625 136.125 29.816406 137.371094 29.816406 137.371094 C 30.976562 142.394531 32.835938 146.503906 32.835938 146.503906 C 35.234375 147.871094 34.449219 148.785156 34.449219 148.785156 C 33.457031 149.035156 31.96875 148.785156 31.96875 148.785156 L 30.023438 146.292969 C 29.28125 144.511719 27.542969 140.609375 27.003906 139.863281 C 26.46875 139.113281 25.226562 136.667969 24.648438 135.671875 C 24.027344 134.675781 23.28125 132.808594 23.28125 132.808594 C 23.117188 134.46875 22.414062 136.125 22.414062 136.125 L 23.160156 146.710938 L 24.8125 147.289062 L 24.152344 148.949219 L 21.671875 148.371094 L 20.179688 144.882812 C 20.179688 144.882812 18.527344 137.414062 17.824219 134.757812 C 17.121094 132.101562 17.453125 127.910156 18.074219 126.871094 C 18.691406 125.835938 18.320312 125.503906 18.527344 123.757812 C 18.734375 122.015625 18.734375 116.496094 18.363281 114.710938 C 17.988281 112.925781 16.542969 109.234375 16.542969 109.234375 C 15.261719 104.792969 15.300781 102.925781 15.300781 102.925781 C 15.46875 100.269531 17.78125 96.617188 19.890625 95.289062 C 21.960938 94.003906 24.730469 94.460938 25.722656 94.875 C 26.714844 95.289062 27.085938 95 28.699219 94.832031 C 30.3125 94.667969 31.761719 94.875 33.789062 95 C 35.8125 95.164062 42.015625 96.078125 42.925781 96.242188 C 43.835938 96.410156 46.691406 96.453125 47.722656 96.121094 C 48.757812 95.789062 49.335938 96.285156 49.335938 96.285156 C 51.777344 97.324219 56.203125 97.65625 56.203125 97.65625 C 58.890625 97.199219 60.253906 98.527344 63.316406 98.898438 C 66.375 99.273438 67.160156 96.90625 67.617188 96.078125 C 68.070312 95.25 71.296875 86.160156 71.296875 86.160156 C 71.296875 86.160156 71.917969 82.714844 74.480469 80.308594 C 77.046875 77.941406 79.484375 76.488281 81.179688 75.367188 C 82.875 74.25 82.875 74.621094 82.875 74.621094 C 82.710938 77.320312 80.601562 79.0625 80.601562 79.0625 C 80.601562 79.0625 83.828125 79.3125 84.035156 79.4375 C 84.242188 79.5625 84.242188 79.683594 84.488281 79.894531 C 84.738281 80.101562 84.488281 80.433594 84.488281 80.433594 C 84.160156 80.765625 84.488281 81.304688 84.488281 81.304688 C 84.488281 81.304688 88.085938 82.671875 88.335938 82.757812 C 88.582031 82.839844 88.957031 83.210938 88.957031 83.210938 C 90.15625 83.421875 89.410156 84.625 89.410156 84.625 L 89.367188 84.625 Z M 89.203125 84.789062 "/>
<path style=" stroke:none;fill-rule:nonzero;fill:rgb(61.56863%,17.647059%,17.254902%);fill-opacity:1;" d="M 101.527344 134.46875 C 100.824219 133.886719 100.824219 131.976562 100.824219 131.976562 C 100.988281 128.28125 98.839844 127.328125 98.839844 127.328125 C 97.433594 126.539062 95.695312 127.039062 95.695312 127.039062 C 95.695312 126.5 95.117188 126.457031 95.117188 126.457031 C 94.871094 126.582031 94.539062 126.582031 94.539062 126.582031 C 94.207031 126.457031 93.546875 126.457031 93.546875 126.457031 C 84.242188 125.628906 78.574219 126.707031 78.574219 126.707031 C 78.285156 126.707031 78.078125 126.871094 77.914062 126.996094 C 77.664062 127.203125 77.542969 127.410156 77.542969 127.410156 C 77.542969 127.410156 75.597656 126.957031 73.984375 127.867188 C 72.371094 128.824219 72.125 130.816406 72.246094 132.265625 C 72.371094 133.636719 71.835938 135.378906 71.835938 135.378906 C 70.550781 136.875 70.386719 138.867188 70.59375 140.859375 C 70.800781 142.851562 71.917969 145.007812 73.117188 147.042969 C 74.316406 149.117188 77.625 153.019531 78.492188 153.640625 C 79.359375 154.222656 80.644531 155.757812 80.644531 155.757812 C 81.636719 156.460938 83.207031 156.792969 84.777344 156.878906 C 86.765625 157.003906 88.832031 156.792969 89.988281 156.585938 C 92.097656 156.253906 92.761719 155.589844 92.761719 155.589844 C 99.5 150.820312 102.769531 140.898438 102.769531 140.898438 C 103.925781 137.414062 101.484375 134.46875 101.484375 134.46875 Z M 74.9375 129.734375 C 74.9375 129.734375 75.679688 128.65625 77.625 129.363281 C 77.625 129.363281 78.535156 129.652344 78.367188 130.398438 C 78.203125 131.148438 77.253906 131.601562 77.253906 131.601562 L 75.058594 132.597656 C 75.058594 132.597656 73.902344 131.0625 74.9375 129.777344 Z M 98.179688 132.265625 C 97.886719 132.144531 96.855469 131.601562 95.488281 131.355469 C 95.488281 131.355469 94.828125 131.230469 94.621094 130.234375 C 94.621094 130.234375 94.496094 129.652344 94.992188 129.488281 C 95.488281 129.320312 96.894531 128.90625 97.765625 129.238281 C 97.765625 129.238281 98.589844 129.609375 98.675781 130.441406 L 98.796875 131.851562 C 98.796875 131.851562 98.425781 132.351562 98.179688 132.265625 Z M 98.179688 132.265625 "/>
<path style=" stroke:none;fill-rule:nonzero;fill:rgb(61.56863%,17.647059%,17.254902%);fill-opacity:1;" d="M 76.050781 136.25 C 76.878906 132.929688 81.554688 132.765625 81.554688 132.765625 C 81.554688 132.765625 81.554688 131.894531 81.800781 130.316406 C 82.050781 128.699219 80.808594 127.910156 80.808594 127.910156 C 77.457031 127.703125 77.871094 126.871094 77.871094 126.871094 C 77.625 127.078125 77.5 127.289062 77.5 127.289062 C 77.5 127.289062 75.554688 126.832031 73.945312 127.742188 C 72.332031 128.699219 72.082031 130.691406 72.207031 132.144531 C 72.332031 133.511719 71.792969 135.253906 71.792969 135.253906 C 70.511719 136.75 70.34375 138.742188 70.550781 140.734375 C 70.757812 142.726562 71.875 144.882812 73.074219 146.917969 C 74.273438 148.992188 77.582031 152.894531 78.453125 153.515625 C 79.320312 154.097656 80.601562 155.632812 80.601562 155.632812 C 81.59375 156.339844 83.164062 156.671875 84.738281 156.753906 C 76.796875 141.605469 75.144531 139.53125 76.011719 136.25 Z M 74.9375 129.734375 C 74.9375 129.734375 75.679688 128.65625 77.625 129.363281 C 77.625 129.363281 78.535156 129.652344 78.367188 130.398438 C 78.203125 131.148438 77.253906 131.601562 77.253906 131.601562 L 75.058594 132.597656 C 75.058594 132.597656 73.902344 131.0625 74.9375 129.777344 Z M 74.9375 129.734375 "/>
<path style=" stroke:none;fill-rule:nonzero;fill:rgb(61.56863%,17.647059%,17.254902%);fill-opacity:1;" d="M 93.710938 127.203125 C 93.710938 126.953125 90.453125 126.746094 86.433594 126.746094 C 82.414062 126.746094 79.15625 126.953125 79.15625 127.203125 C 79.15625 127.457031 82.414062 127.660156 86.433594 127.660156 C 90.453125 127.660156 93.710938 127.457031 93.710938 127.203125 Z M 93.710938 127.203125 "/>
</g>
</svg>
