<?xml version="1.0" encoding="UTF-8"?>
<svg xmlns="http://www.w3.org/2000/svg" xmlns:xlink="http://www.w3.org/1999/xlink" width="px" height="200px" viewBox="0 0 265 200" version="1.1">
<g id="surface1">
<path style=" stroke:none;fill-rule:nonzero;fill:rgb(50.980395%,74.901962%,45.09804%);fill-opacity:1;" d="M 249.144531 102 L 249.144531 89.234375 C 249.640625 87.214844 249.820312 86.359375 249.640625 84.742188 C 249.640625 84.066406 249.371094 83.484375 249.054688 82.40625 C 248.832031 81.503906 248.695312 80.605469 248.5625 79.707031 C 248.382812 78.585938 247.617188 78.136719 246.539062 77.953125 C 246.449219 77.953125 246.316406 77.953125 246.226562 77.910156 L 246.226562 77.503906 C 246.539062 76.875 246.449219 75.664062 246.089844 74.585938 C 245.910156 74 245.328125 73.773438 244.699219 73.773438 C 244.070312 73.773438 243.394531 74.089844 243.351562 74.765625 C 243.351562 75.707031 243.261719 76.652344 243.214844 77.59375 C 243.214844 78 243.035156 78.136719 242.632812 78.089844 C 241.597656 78 240.519531 77.910156 239.847656 78.898438 C 239.847656 78.898438 239.710938 78.898438 239.621094 78.988281 C 239.710938 77.820312 239.980469 76.292969 240.117188 76.203125 C 240.160156 76.203125 240.429688 76.066406 240.476562 75.886719 C 240.519531 75.664062 240.476562 75.304688 240.476562 75.125 L 240.476562 74 C 240.476562 73.953125 240.429688 73.863281 240.339844 73.863281 C 240.339844 73.863281 240.339844 73.910156 240.296875 73.863281 L 240.296875 73.773438 C 240.207031 73.683594 240.070312 73.683594 240.070312 73.773438 C 240.070312 74.136719 239.980469 74.40625 239.980469 74.71875 C 239.710938 74.71875 239.351562 74.71875 239.261719 74.898438 C 239.128906 75.078125 238.992188 75.664062 239.171875 76.066406 C 239.21875 76.203125 238.8125 77.820312 238.542969 78.808594 C 238.230469 79.84375 238.367188 80.832031 238.457031 81.863281 C 238.5 82.539062 239.082031 82.71875 239.621094 82.269531 C 239.757812 82.179688 239.757812 82.046875 239.847656 81.910156 C 239.9375 81.953125 240.027344 82.089844 240.117188 82.136719 C 240.117188 82.675781 240.027344 83.976562 240.027344 84.515625 C 240.027344 85.054688 239.9375 85.324219 239.980469 85.730469 C 240.027344 86.675781 240.25 87.617188 240.207031 88.5625 C 240.070312 90.496094 240.027344 99.617188 239.890625 101.953125 L 238.457031 101.953125 L 238.457031 106.449219 L 250.582031 106.449219 L 250.582031 101.953125 L 249.144531 101.953125 Z M 249.144531 102 "/>
<path style=" stroke:none;fill-rule:nonzero;fill:rgb(1.960784%,19.607843%,21.960784%);fill-opacity:1;" d="M 39.390625 143.257812 C 38.492188 144.203125 37.59375 145.101562 36.695312 146 C 36.5625 148.921875 34.179688 151.347656 31.484375 151.394531 C 30.496094 152.425781 29.597656 153.550781 28.878906 154.765625 C 28.746094 155.078125 28.519531 155.484375 28.746094 155.796875 C 29.058594 156.292969 29.507812 156.113281 29.914062 155.976562 C 30.8125 155.707031 31.664062 155.394531 32.5625 155.078125 C 33.011719 155.078125 33.417969 155.078125 33.867188 154.945312 C 34.585938 154.765625 35.4375 153.640625 35.976562 154.496094 C 36.5625 155.347656 35.394531 156.066406 34.855469 156.832031 C 34.71875 156.964844 34.628906 157.101562 34.449219 157.234375 C 31.84375 159.664062 30.40625 162.945312 28.070312 165.59375 C 27.800781 165.910156 27.308594 166.496094 27.847656 166.898438 C 28.386719 167.347656 28.878906 166.898438 29.285156 166.449219 C 29.867188 165.820312 30.40625 165.144531 30.992188 164.515625 C 34 161.371094 37.910156 159.125 40.199219 155.214844 C 40.601562 154.539062 41.320312 154.449219 42.039062 154.496094 C 44.105469 154.628906 46.082031 154.089844 48.058594 153.640625 C 52.371094 152.605469 56.726562 151.527344 61.039062 150.359375 C 68.898438 148.203125 76.582031 145.550781 84.304688 143.078125 C 86.191406 142.449219 87.898438 141.640625 89.425781 140.15625 C 90.953125 138.628906 92.972656 138 95.085938 137.730469 C 95.21875 137.640625 95.398438 137.550781 95.535156 137.460938 C 96.027344 136.875 96.65625 136.652344 97.375 136.742188 C 97.375 136.742188 97.511719 136.652344 97.511719 136.605469 C 97.421875 136.15625 97.691406 136.023438 98.09375 135.933594 C 99.039062 134.675781 100.339844 133.910156 101.554688 132.964844 C 105.6875 129.730469 110.535156 127.527344 113.816406 123.257812 C 114.128906 122.808594 114.667969 122.539062 115.253906 122.539062 C 115.386719 122.40625 115.433594 122.316406 115.566406 122.179688 C 115.566406 120.875 116.285156 120.113281 117.410156 119.527344 C 118.488281 118.988281 119.519531 118.269531 120.191406 117.28125 C 119.742188 116.695312 120.820312 115.933594 119.921875 115.304688 C 119.742188 115.167969 120.328125 115.078125 120.597656 114.988281 C 120.238281 113.910156 120.597656 113.234375 121.765625 113.191406 C 121.539062 112.515625 121 112.5625 120.6875 112.292969 C 119.878906 111.574219 119.339844 110.855469 120.957031 110.316406 C 121.945312 109.953125 123.113281 109.640625 123.875 108.785156 C 123.785156 108.335938 123.742188 107.84375 124.28125 107.574219 C 124.371094 107.347656 124.414062 107.125 124.460938 106.898438 C 123.875 106.675781 123.335938 106.316406 122.707031 106.269531 C 121 106.136719 121.046875 105.503906 122.167969 104.335938 C 120.550781 104.921875 118.890625 104.472656 117.273438 105.011719 C 119.472656 104.875 120.328125 106.585938 121.675781 107.707031 C 121.226562 108.292969 120.640625 108.425781 120.101562 108.246094 C 119.117188 107.933594 118.398438 108.382812 117.679688 108.875 C 116.554688 109.59375 115.523438 109.773438 114.085938 109.550781 C 112.960938 109.371094 111.703125 110 110.984375 108.5625 C 110.984375 108.5625 110.625 108.5625 110.492188 108.695312 C 109.683594 109.144531 109.054688 108.785156 108.46875 108.246094 C 107.976562 107.796875 107.527344 107.886719 106.941406 108.113281 C 103.84375 109.324219 100.566406 110.226562 97.601562 111.664062 C 95.625 112.652344 93.511719 112.695312 91.492188 113.371094 C 91.269531 113.460938 89.472656 114.40625 90.324219 112.425781 C 90.640625 111.707031 89.832031 111.84375 89.335938 111.753906 C 88.257812 111.527344 87.40625 112.652344 86.28125 112.15625 C 85.292969 111.707031 84.53125 112.15625 83.8125 112.875 C 83.363281 113.28125 83.046875 114.316406 82.238281 113.59375 C 81.566406 112.964844 81.746094 112.15625 82.375 111.4375 C 83.273438 110.40625 83.363281 109.144531 83.363281 107.394531 C 81.835938 108.785156 80.621094 109.910156 79.949219 111.574219 C 79.722656 112.15625 79.367188 112.785156 78.691406 112.832031 C 77.660156 112.921875 78.46875 111.796875 77.839844 111.4375 C 76.265625 111.796875 75.996094 115.167969 73.527344 113.414062 C 73.527344 113.59375 73.4375 113.820312 73.390625 113.953125 C 73.210938 114.359375 72.988281 114.765625 72.402344 114.675781 C 72.3125 114.675781 72.222656 114.539062 72.222656 114.40625 C 72.222656 113.863281 72.582031 113.683594 72.988281 113.503906 C 73.121094 113.503906 73.347656 113.503906 73.527344 113.503906 C 73.210938 112.515625 74.515625 111.886719 74.066406 110.628906 C 72 114.089844 68 114.449219 65.128906 116.515625 C 64.8125 116.742188 64.453125 116.964844 64.140625 116.652344 C 63.78125 116.246094 64.140625 115.933594 64.410156 115.707031 C 64.589844 115.484375 64.902344 115.304688 65.128906 115.125 C 65.53125 114.71875 66.5625 114.675781 66.160156 113.863281 C 65.800781 113.144531 64.949219 113.460938 64.320312 113.550781 C 63.734375 113.640625 63.375 114.136719 62.925781 114.40625 C 61.757812 115.078125 60.90625 116.472656 59.289062 116.15625 C 59.199219 116.15625 59.152344 116.246094 59.152344 116.292969 C 59.691406 117.640625 59.242188 118.675781 58.074219 119.484375 C 56.503906 120.605469 55.066406 121.820312 54.167969 123.617188 C 53.851562 124.292969 53.269531 124.652344 52.550781 124.652344 C 51.519531 124.652344 51.023438 125.371094 50.710938 126.226562 C 50.484375 126.808594 50.484375 127.527344 49.902344 127.84375 C 47.296875 129.28125 46.21875 131.933594 44.601562 134.179688 C 43.882812 135.167969 42.894531 136.023438 42.984375 137.414062 C 43.117188 137.863281 43.164062 138.316406 43.296875 138.765625 C 45.363281 140.515625 45.320312 141.234375 43.027344 142.316406 C 41.90625 142.855469 40.691406 143.035156 39.480469 143.125 Z M 39.390625 143.257812 "/>
<path style=" stroke:none;fill-rule:nonzero;fill:rgb(73.725492%,69.411767%,13.725491%);fill-opacity:1;" d="M 97.375 136.742188 C 97.375 136.742188 97.511719 136.652344 97.511719 136.605469 C 97.960938 136.605469 98.09375 136.382812 98.09375 135.933594 C 99.039062 134.675781 100.339844 133.910156 101.554688 132.964844 C 105.6875 129.730469 110.535156 127.527344 113.816406 123.257812 C 114.128906 122.808594 114.667969 122.539062 115.253906 122.539062 C 114.667969 123.484375 113.816406 124.203125 114.265625 125.59375 C 115.164062 128.605469 112.378906 129.144531 110.761719 130.496094 C 110.582031 130.628906 110.3125 130.628906 110.042969 130.765625 C 108.875 131.4375 107.75 132.335938 107.796875 133.730469 C 107.796875 135.035156 109.234375 134.988281 110.222656 135.304688 C 111.34375 135.617188 112.378906 136.292969 112.378906 137.550781 C 112.378906 138.765625 113.007812 139.035156 114.039062 138.945312 C 114.355469 138.945312 114.667969 138.945312 114.984375 139.078125 C 115.65625 139.257812 116.332031 139.484375 116.554688 140.203125 C 116.78125 141.011719 116.195312 141.460938 115.65625 141.863281 C 115.253906 142.136719 114.667969 142.359375 114.894531 142.988281 C 115.074219 143.574219 115.746094 143.394531 116.195312 143.394531 C 117.949219 143.394531 119.652344 143.394531 121.40625 143.078125 C 122.347656 142.945312 123.605469 142.808594 122.976562 144.605469 C 122.664062 145.460938 123.203125 145.59375 123.875 145.371094 C 127.109375 144.472656 130.300781 143.617188 132.679688 140.964844 C 133.621094 139.933594 135.015625 139.796875 136.226562 139.4375 C 138.921875 138.675781 141.257812 136.832031 144.359375 137.144531 C 145.882812 137.28125 145.929688 137.683594 145.347656 138.808594 C 144.539062 140.5625 143.28125 141.503906 141.304688 141.953125 C 139.597656 142.359375 137.890625 143.167969 136.765625 144.742188 C 135.867188 145.953125 134.339844 146.675781 134.429688 148.5625 C 134.429688 149.550781 134.566406 150 135.6875 149.59375 C 137.800781 148.875 139.460938 147.664062 140.988281 146 C 142.785156 144.113281 144.988281 142.179688 147.859375 141.910156 C 149.34375 141.773438 150.285156 141.191406 150.960938 139.933594 C 151.09375 139.664062 151.273438 139.394531 151.453125 139.167969 C 153.296875 137.234375 153.296875 137.191406 154.734375 139.574219 C 155.183594 140.382812 155.722656 140.382812 156.394531 139.976562 C 157.203125 139.484375 157.699219 138.675781 158.28125 137.953125 C 158.730469 137.460938 159.132812 136.832031 159.671875 136.472656 C 160.300781 136.023438 161.019531 135.257812 161.828125 136.023438 C 162.546875 136.695312 161.828125 137.414062 161.558594 138.046875 C 161.109375 138.945312 160.570312 139.753906 160.796875 140.832031 C 160.4375 141.191406 160.167969 141.550781 159.808594 141.910156 C 154.734375 146.628906 149.792969 151.484375 145.078125 156.515625 C 142.964844 158.765625 140.585938 160.605469 137.574219 161.503906 C 135.867188 162 134.429688 162.808594 132.949219 163.796875 C 130.121094 165.640625 127.558594 168.023438 123.832031 167.933594 C 122.617188 167.078125 121.585938 166 119.96875 167.394531 C 119.382812 167.886719 118.261719 167.707031 118.351562 166.496094 C 118.441406 165.191406 117.632812 165.054688 116.734375 165.054688 C 115.835938 165.054688 114.535156 165.28125 113.5 165.863281 C 112.199219 166.585938 111.253906 166.496094 110.761719 164.964844 C 110.355469 163.796875 109.503906 163.394531 108.378906 163.214844 C 106.941406 163.035156 105.371094 163.214844 104.472656 161.640625 C 104.382812 161.503906 104.023438 161.324219 103.800781 161.414062 C 101.914062 162.089844 100.339844 161.28125 98.722656 160.425781 C 97.691406 159.886719 96.523438 160.425781 95.488281 160.832031 C 93.109375 161.863281 91.941406 161.640625 90.28125 159.617188 C 89.113281 158.179688 87.855469 157.863281 86.238281 158.855469 C 83.722656 160.335938 81.386719 162.046875 79.140625 163.886719 C 77.839844 165.011719 76.355469 165.191406 74.964844 164.066406 C 73.976562 163.347656 73.480469 163.976562 72.941406 164.515625 C 71.773438 165.683594 70.875 167.167969 69.078125 167.527344 C 68.359375 167.527344 67.6875 167.527344 66.921875 167.617188 C 66.699219 166.40625 67.640625 165.730469 68.089844 164.785156 C 68.808594 163.304688 67.238281 159.84375 65.667969 159.574219 C 64.722656 159.394531 64.542969 160.023438 64.859375 160.695312 C 65.667969 162.539062 64.542969 162.988281 63.105469 163.304688 C 61.9375 163.574219 60.769531 163.4375 59.558594 163.484375 C 58.570312 163.484375 57.582031 163.257812 56.90625 164.382812 C 56.503906 165.054688 55.917969 164.472656 55.425781 164.382812 C 53.761719 163.976562 52.011719 162.898438 50.800781 165.324219 C 50.394531 166.046875 49.542969 165.503906 48.957031 165.324219 C 47.296875 164.832031 45.5 163.933594 44.914062 166.675781 C 44.914062 166.855469 44.554688 167.125 44.375 167.125 C 41.996094 167.304688 41.230469 169.59375 39.617188 170.71875 C 39.390625 170.855469 39.210938 171.394531 39.210938 171.707031 C 39.210938 173.144531 38.359375 174.046875 37.371094 174.71875 C 35.125 176.203125 33.957031 178.316406 33.238281 180.832031 C 32.921875 181.910156 33.460938 182.179688 34.40625 182.089844 C 35.035156 182 35.617188 181.234375 36.246094 182 C 34.089844 185.011719 32.113281 188.203125 29.554688 190.988281 C 25.421875 191.4375 21.289062 192.113281 17.605469 194.40625 C 17.292969 194.585938 16.933594 194.808594 16.617188 194.855469 C 15.71875 195.125 14.460938 195.707031 14.058594 194.855469 C 13.5625 194 15.089844 193.953125 15.539062 193.324219 C 17.292969 190.945312 20.257812 190 22.007812 187.664062 C 23.3125 185.953125 24.480469 184.15625 25.242188 182.089844 C 25.738281 180.695312 26.769531 179.664062 27.9375 178.898438 C 29.195312 178.089844 29.957031 177.054688 30.40625 175.574219 C 31.261719 172.785156 33.550781 170.855469 35.035156 168.425781 C 35.394531 167.84375 35.84375 167.394531 35.933594 166.628906 C 36.15625 163.933594 37.773438 162.269531 40.199219 161.324219 C 40.648438 161.144531 41.007812 160.832031 41.457031 160.5625 C 42.757812 159.664062 43.972656 158.71875 45.589844 160.113281 C 46.308594 160.785156 47.027344 160.292969 47.746094 159.84375 C 49.09375 158.988281 50.53125 158 52.058594 159.707031 C 52.507812 160.203125 53.042969 159.933594 53.582031 159.617188 C 55.109375 158.675781 56.59375 158.046875 58.480469 158.898438 C 59.78125 159.4375 61.039062 158.765625 61.757812 157.460938 C 62.074219 156.875 62.207031 156.15625 62.433594 155.527344 C 63.015625 153.371094 64.230469 151.84375 66.429688 151.078125 C 71.144531 149.460938 75.726562 147.304688 80.578125 146.089844 C 84.214844 145.191406 87.585938 143.707031 91 142.40625 C 91.359375 142.269531 91.628906 142.089844 91.988281 141.910156 C 91.582031 141.101562 90.683594 142 90.324219 141.191406 C 90.953125 139.976562 92.257812 139.664062 93.378906 139.078125 C 94.007812 138.765625 94.90625 138.765625 95.128906 137.863281 C 95.265625 137.773438 95.445312 137.683594 95.578125 137.59375 C 96.386719 137.863281 97.0625 137.730469 97.421875 136.875 L 97.421875 136.742188 Z M 105.550781 151.617188 C 106.851562 151.304688 108.289062 150.898438 108.875 152.785156 C 109.054688 153.371094 109.59375 153.640625 110.175781 153.730469 C 110.941406 153.863281 112.019531 153.640625 112.558594 153.953125 C 115.207031 155.484375 117.679688 153.953125 120.191406 153.773438 C 122.304688 153.640625 122.886719 152.472656 121.765625 150.628906 C 120.328125 148.292969 119.429688 147.933594 116.824219 148.5625 C 115.433594 148.921875 114.128906 148.695312 112.828125 148.15625 C 112.019531 147.796875 111.433594 147.796875 110.714844 148.605469 C 109.683594 149.863281 108.019531 149.503906 107.300781 148.023438 C 107.167969 147.664062 106.941406 147.347656 106.851562 147.035156 C 106.359375 144.605469 104.5625 145.550781 103.171875 145.683594 C 101.734375 145.820312 101.328125 146.988281 101.148438 148.023438 C 101.148438 151.304688 102.585938 152.425781 105.550781 151.664062 Z M 106.132812 141.730469 C 106.222656 140.425781 105.371094 139.574219 103.84375 139.574219 C 102.316406 139.574219 100.835938 140.515625 100.835938 141.910156 C 100.835938 143.304688 101.195312 143.304688 103.484375 143.257812 C 104.519531 143.167969 106.089844 143.4375 106.179688 141.683594 Z M 106.132812 141.730469 "/>
<path style=" stroke:none;fill-rule:nonzero;fill:rgb(85.882354%,80.784315%,13.333334%);fill-opacity:1;" d="M 115.253906 122.496094 C 114.667969 123.4375 113.816406 124.15625 114.265625 125.550781 C 115.164062 128.5625 112.378906 129.101562 110.761719 130.449219 C 110.582031 130.585938 110.3125 130.585938 110.042969 130.71875 C 108.875 131.394531 107.75 132.292969 107.796875 133.683594 C 107.796875 134.988281 109.234375 134.945312 110.222656 135.257812 C 111.34375 135.574219 112.378906 136.246094 112.378906 137.503906 C 112.378906 138.71875 113.007812 138.988281 114.039062 138.898438 C 114.355469 138.898438 114.667969 138.898438 114.984375 139.035156 C 115.65625 139.214844 116.332031 139.4375 116.554688 140.15625 C 116.78125 140.964844 116.195312 141.414062 115.65625 141.820312 C 115.253906 142.089844 114.667969 142.316406 114.894531 142.945312 C 115.074219 143.527344 115.746094 143.347656 116.195312 143.347656 C 117.949219 143.347656 119.652344 143.347656 121.40625 143.035156 C 122.347656 142.898438 123.605469 142.765625 122.976562 144.5625 C 122.664062 145.414062 123.203125 145.550781 123.875 145.324219 C 127.109375 144.425781 130.300781 143.574219 132.679688 140.921875 C 133.621094 139.886719 135.015625 139.753906 136.226562 139.394531 C 138.921875 138.628906 141.257812 136.785156 144.359375 137.101562 C 145.882812 137.234375 145.929688 137.640625 145.347656 138.765625 C 144.539062 140.515625 143.28125 141.460938 141.304688 141.910156 C 139.597656 142.316406 137.890625 143.125 136.765625 144.695312 C 135.867188 145.910156 134.339844 146.628906 134.429688 148.515625 C 134.429688 149.503906 134.566406 149.953125 135.6875 149.550781 C 137.800781 148.832031 139.460938 147.617188 140.988281 145.953125 C 142.785156 144.066406 144.988281 142.136719 147.859375 141.863281 C 149.34375 141.730469 150.285156 141.144531 150.960938 139.886719 C 151.09375 139.617188 151.273438 139.347656 151.453125 139.125 C 153.296875 137.191406 153.296875 137.144531 154.734375 139.527344 C 155.183594 140.335938 155.722656 140.335938 156.394531 139.933594 C 157.203125 139.4375 157.699219 138.628906 158.28125 137.910156 C 158.730469 137.414062 159.132812 136.785156 159.671875 136.425781 C 160.300781 135.976562 161.019531 135.214844 161.828125 135.976562 C 162.546875 136.652344 161.828125 137.371094 161.558594 138 C 161.109375 138.898438 160.570312 139.707031 160.796875 140.785156 C 170.140625 133.191406 173.777344 123.167969 173.328125 111.347656 C 172.609375 112.472656 172.652344 113.730469 172.652344 114.945312 C 172.652344 116.15625 172.25 116.5625 171.261719 116.472656 C 169.824219 116.335938 169.0625 116.921875 168.835938 118.359375 C 168.703125 119.125 168.117188 119.4375 167.308594 119.4375 C 166.5 119.4375 166.140625 119.214844 165.960938 118.449219 C 165.78125 117.683594 165.828125 116.515625 164.839844 116.605469 C 163.761719 116.742188 162.414062 116.964844 162.007812 118.316406 C 161.738281 119.214844 161.066406 119.617188 160.347656 119.886719 C 159.761719 120.15625 159.089844 120.335938 158.777344 119.527344 C 158.507812 118.898438 158.640625 118.269531 159.3125 117.953125 C 160.390625 117.460938 160.300781 116.605469 160.210938 115.617188 C 160.121094 114.359375 159.179688 113.730469 158.640625 112.785156 C 157.921875 111.304688 157.472656 111.796875 157.070312 112.921875 C 156.664062 114 156.171875 114.089844 155.363281 113.324219 C 154.597656 112.605469 153.65625 111.976562 152.578125 112.066406 C 148.667969 112.472656 145.121094 110.988281 141.527344 109.910156 C 140.675781 109.640625 139.957031 109.640625 140.675781 108.425781 C 141.167969 107.617188 140.269531 107.574219 139.730469 107.574219 L 135.464844 107.574219 C 134.746094 107.574219 133.757812 107.933594 133.488281 107.035156 C 133.261719 106.089844 134.160156 105.503906 134.789062 104.921875 C 135.195312 104.5625 135.734375 104.5625 136.226562 104.605469 L 136.316406 104.515625 L 136.316406 104.605469 C 137.800781 106.449219 139.460938 106.539062 141.304688 104.964844 C 141.304688 104.964844 141.394531 104.875 141.4375 104.832031 C 142.472656 104.15625 143.371094 103.574219 144.941406 103.796875 C 146.871094 104.066406 148.847656 104.652344 150.960938 103.886719 C 152.710938 103.214844 153.96875 100.382812 152.847656 99.035156 C 152.308594 99.347656 151.859375 99.753906 151.859375 100.515625 C 151.859375 101.011719 151.632812 101.371094 151.140625 101.414062 C 150.195312 101.503906 149.523438 101.863281 148.894531 102.539062 C 148.578125 102.898438 148.128906 102.945312 147.679688 102.675781 C 145.078125 101.191406 142.785156 101.683594 140.585938 103.617188 C 140.359375 103.796875 139.191406 106.089844 138.652344 103.617188 C 137.621094 104.335938 137.394531 102.449219 136.316406 102.945312 C 134.117188 103.933594 131.738281 103.84375 129.402344 103.664062 C 128.546875 104.066406 127.738281 104.605469 126.886719 103.664062 C 125.761719 104.472656 125.359375 105.234375 127.289062 105.820312 C 126.390625 106.40625 125.671875 107.035156 124.59375 106.855469 C 124.503906 107.078125 124.460938 107.304688 124.414062 107.527344 C 124.863281 107.84375 125.808594 107.933594 124.953125 108.785156 C 125.222656 109.101562 125.492188 109.371094 125.761719 109.640625 C 125.042969 109.910156 123.875 109.234375 123.605469 110.136719 C 123.335938 111.304688 124.910156 111.484375 125.449219 112.382812 C 123.742188 113.191406 122.664062 114.808594 120.730469 114.898438 C 120.507812 114.988281 119.878906 115.078125 120.058594 115.214844 C 120.957031 115.84375 119.921875 116.605469 120.328125 117.191406 C 121.539062 117.460938 121.945312 118.046875 121 119.035156 C 120.238281 119.886719 119.429688 120.742188 118.621094 121.59375 C 117.769531 122.496094 116.78125 122.71875 115.65625 122.046875 C 115.523438 122.179688 115.476562 122.269531 115.34375 122.40625 L 115.253906 122.40625 Z M 115.253906 122.496094 "/>
<path style=" stroke:none;fill-rule:nonzero;fill:rgb(1.960784%,19.607843%,21.960784%);fill-opacity:1;" d="M 193.496094 80.066406 C 197.492188 77.910156 201.984375 77.371094 206.339844 76.382812 C 210.878906 75.394531 215.234375 73.910156 219.5 72.023438 C 220.308594 71.664062 221.074219 71.347656 221.972656 71.394531 C 220.894531 70.089844 219.5 70.628906 218.152344 70.808594 C 214.109375 71.347656 210.25 72.652344 206.117188 73.011719 C 200.457031 73.460938 194.796875 74.226562 189.40625 76.203125 C 188.644531 76.472656 187.835938 76.832031 186.710938 76.335938 C 188.734375 75.078125 191.023438 75.167969 192.910156 74.046875 C 192.460938 73.59375 191.96875 73.324219 192.101562 72.515625 C 192.328125 70.71875 191.921875 70.449219 189.992188 70.765625 C 189.453125 70.855469 188.867188 70.898438 188.375 70.628906 C 188.105469 70.71875 187.835938 70.765625 187.566406 70.808594 C 187.429688 71.753906 186.847656 72.113281 185.992188 71.753906 C 185.320312 71.484375 184.960938 71.753906 185.050781 72.382812 C 185.457031 74.226562 184.242188 73.59375 183.570312 73.28125 C 181.90625 72.515625 180.199219 71.886719 178.402344 71.4375 C 178 71.347656 177.730469 71.078125 177.683594 70.71875 C 177.234375 70.71875 176.785156 70.71875 176.382812 70.808594 C 174.316406 70.945312 172.25 71.257812 170.230469 70.539062 L 168.566406 70.539062 C 168.253906 70.898438 167.847656 70.765625 167.488281 70.675781 C 167.085938 70.808594 166.726562 70.855469 166.320312 70.988281 C 165.917969 71.753906 165.152344 71.4375 164.523438 71.617188 C 163.175781 72.425781 162.457031 74.316406 160.480469 74.136719 C 160.347656 74.539062 160.03125 74.628906 159.71875 74.71875 C 159.71875 74.359375 159.808594 74.046875 159.851562 73.730469 C 158.957031 73.730469 158.058594 73.730469 157.203125 73.730469 C 156.933594 74.046875 156.710938 74 156.53125 73.59375 L 155.496094 73.59375 C 155.316406 74.316406 154.914062 74.988281 154.105469 75.167969 C 151.5 75.707031 149.253906 77.234375 146.648438 77.953125 C 144.898438 78.449219 143.054688 79.484375 141.4375 80.785156 C 140.136719 81.820312 138.789062 83.214844 136.765625 82.945312 C 136.453125 82.945312 136.136719 83.035156 135.867188 83.078125 C 134.746094 84.472656 132.679688 84.472656 131.558594 85.773438 C 129.714844 87.933594 127.425781 88.921875 124.683594 89.234375 L 124.59375 89.324219 L 124.683594 89.234375 C 124.28125 88.964844 123.695312 88.785156 123.515625 88.382812 C 123.066406 87.394531 122.574219 87.035156 121.585938 87.617188 C 121.179688 87.84375 120.910156 87.4375 120.597656 87.257812 C 120.011719 87.035156 119.472656 87.257812 119.027344 87.617188 C 117.722656 88.742188 117.183594 94.179688 118.621094 94.898438 C 120.820312 95.976562 122.484375 97.953125 125 98.628906 C 126.390625 99.035156 128.054688 99.125 128.996094 100.335938 C 130.300781 102.046875 131.960938 102.179688 133.800781 101.820312 C 134.476562 101.683594 135.195312 101.234375 135.777344 101.414062 C 137.84375 102.046875 139.640625 101.414062 141.4375 100.652344 C 143.234375 99.886719 144.941406 99.664062 146.78125 100.425781 C 148.445312 101.144531 149.476562 100.425781 149.746094 98.585938 C 149.882812 97.414062 150.332031 96.292969 151.589844 96.023438 C 152.578125 95.796875 153.429688 95.257812 154.328125 94.988281 C 156.082031 94.449219 157.742188 93.414062 159.671875 93.820312 C 160.078125 93.59375 160.480469 93.371094 160.886719 93.144531 C 162.324219 91.664062 163.894531 90.449219 165.960938 90.089844 C 167.265625 89.863281 169.152344 89.683594 169.691406 88.832031 C 170.722656 87.257812 172.160156 87.257812 173.550781 86.855469 C 173.820312 86.628906 174 86.179688 174.40625 86.226562 C 176.246094 86.359375 177.414062 85.054688 178.851562 84.203125 C 179.390625 82.675781 180.109375 81.550781 181.996094 82.628906 C 182.445312 82.898438 183.074219 82.628906 183.570312 82.449219 C 186.847656 81.503906 190.171875 80.652344 193.496094 80.023438 L 193.359375 79.933594 Z M 193.496094 80.066406 "/>
<path style=" stroke:none;fill-rule:nonzero;fill:rgb(12.54902%,42.352942%,37.64706%);fill-opacity:1;" d="M 124.59375 89.324219 C 124.191406 89.054688 123.605469 88.875 123.425781 88.472656 C 122.976562 87.484375 122.484375 87.125 121.496094 87.707031 C 121.089844 87.933594 120.820312 87.527344 120.507812 87.347656 C 119.921875 87.125 119.382812 87.347656 118.9375 87.707031 C 117.632812 88.832031 117.09375 94.269531 118.53125 94.988281 C 120.730469 96.066406 122.394531 98.046875 124.910156 98.71875 C 126.300781 99.125 127.964844 99.214844 128.90625 100.425781 C 130.210938 102.136719 131.871094 102.269531 133.710938 101.910156 C 134.386719 101.773438 135.105469 101.324219 135.6875 101.503906 C 137.753906 102.136719 139.550781 101.503906 141.347656 100.742188 C 143.144531 99.976562 144.851562 99.753906 146.691406 100.515625 C 148.355469 101.234375 149.386719 100.515625 149.65625 98.675781 C 149.792969 97.503906 150.242188 96.382812 151.5 96.113281 C 152.488281 95.886719 153.339844 95.347656 154.238281 95.078125 C 155.992188 94.539062 157.652344 93.503906 159.582031 93.910156 C 158.777344 94.40625 157.921875 94.898438 157.113281 95.394531 C 155.8125 94.765625 154.914062 95.167969 154.417969 96.515625 C 153.878906 97.371094 153.296875 98.179688 152.757812 99.035156 C 152.21875 99.347656 151.769531 99.753906 151.769531 100.515625 C 151.769531 101.011719 151.542969 101.371094 151.050781 101.414062 C 150.105469 101.503906 149.433594 101.863281 148.804688 102.539062 C 148.488281 102.898438 148.039062 102.945312 147.589844 102.675781 C 144.988281 101.191406 142.695312 101.683594 140.496094 103.617188 C 140.269531 103.796875 139.101562 106.089844 138.5625 103.617188 C 137.53125 104.335938 137.304688 102.449219 136.226562 102.945312 C 134.027344 103.933594 131.648438 103.84375 129.3125 103.664062 C 128.457031 102.675781 127.648438 103.257812 126.796875 103.664062 C 125.671875 104.472656 125.269531 105.234375 127.199219 105.820312 C 126.300781 106.40625 125.582031 107.035156 124.503906 106.855469 C 123.921875 106.628906 123.382812 106.269531 122.753906 106.226562 C 121.046875 106.089844 121.089844 105.460938 122.214844 104.292969 C 120.597656 104.875 118.9375 104.425781 117.320312 104.964844 C 119.519531 104.832031 120.371094 106.539062 121.71875 107.664062 C 121.269531 108.246094 120.6875 108.382812 120.148438 108.203125 C 119.160156 107.886719 118.441406 108.335938 117.722656 108.832031 C 116.601562 109.550781 115.566406 109.730469 114.128906 109.503906 C 113.007812 109.324219 111.75 109.953125 111.03125 108.515625 C 111.03125 108.515625 110.671875 108.515625 110.535156 108.652344 C 109.726562 109.101562 109.097656 108.742188 108.515625 108.203125 C 108.019531 107.753906 107.570312 107.84375 106.988281 108.066406 C 103.890625 109.28125 100.609375 110.179688 97.644531 111.617188 C 95.667969 112.605469 93.558594 112.652344 91.539062 113.324219 C 91.3125 113.414062 89.515625 114.359375 90.371094 112.382812 C 90.683594 111.664062 89.875 111.796875 89.382812 111.707031 C 88.304688 111.484375 87.449219 112.605469 86.328125 112.113281 C 85.339844 111.664062 84.574219 112.113281 83.855469 112.832031 C 83.40625 113.234375 83.09375 114.269531 82.285156 113.550781 C 81.609375 112.921875 81.789062 112.113281 82.417969 111.394531 C 83.316406 110.359375 83.40625 109.101562 83.40625 107.347656 C 81.878906 108.742188 80.667969 109.863281 79.992188 111.527344 C 79.769531 112.113281 79.410156 112.742188 78.738281 112.785156 C 77.703125 112.875 78.511719 111.753906 77.882812 111.394531 C 76.3125 111.753906 76.042969 115.125 73.570312 113.371094 C 73.257812 112.382812 74.558594 111.753906 74.109375 110.496094 C 72.042969 113.953125 68.046875 114.316406 65.171875 116.382812 C 64.859375 116.605469 64.5 116.832031 64.183594 116.515625 C 63.824219 116.113281 64.183594 115.796875 64.453125 115.574219 C 64.632812 115.347656 64.949219 115.167969 65.171875 114.988281 C 65.578125 114.585938 66.609375 114.539062 66.207031 113.730469 C 65.847656 113.011719 64.992188 113.324219 64.363281 113.414062 C 63.78125 113.503906 63.421875 114 62.972656 114.269531 C 61.804688 114.945312 60.949219 116.335938 59.332031 116.023438 C 59.78125 115.617188 60.277344 115.257812 60.726562 114.808594 C 71.820312 104.203125 84.574219 96.246094 98.722656 90.359375 C 102.183594 88.921875 105.820312 87.933594 109.414062 86.808594 C 113.320312 85.640625 117.453125 85.550781 121.359375 84.292969 C 120.867188 86.316406 120.820312 86.359375 123.113281 86.449219 C 124.191406 86.449219 124.550781 87.886719 125.988281 87.664062 C 127.289062 87.4375 128.59375 87.125 129.445312 86.226562 C 131.242188 84.382812 133.488281 83.527344 135.867188 83.035156 C 134.746094 84.425781 132.679688 84.425781 131.558594 85.730469 C 129.714844 87.886719 127.425781 88.875 124.683594 89.191406 L 124.550781 89.191406 Z M 103.441406 101.910156 C 105.820312 101.460938 108.335938 102.179688 110.085938 99.933594 C 109.90625 99.527344 108.785156 100.113281 109.054688 99.167969 C 109.324219 98.046875 110.355469 98.269531 111.253906 98.359375 C 111.121094 97.324219 110.445312 96.875 109.683594 96.652344 C 108.246094 96.246094 106.582031 96.515625 105.867188 94.585938 C 105.730469 94.136719 104.96875 94.316406 104.742188 95.125 C 104.25 96.921875 103.441406 97.054688 101.734375 96.425781 C 99.800781 95.617188 97.734375 95.484375 95.625 96.425781 C 93.78125 97.191406 91.71875 97.550781 89.964844 98.628906 C 88.886719 99.347656 89.964844 100.605469 89.246094 101.414062 C 89.695312 101.730469 90.191406 101.59375 90.460938 101.28125 C 92.257812 99.078125 94.949219 99.707031 97.195312 98.988281 C 98.632812 98.539062 99.21875 99.4375 98.769531 101.054688 C 98.632812 101.503906 98.320312 101.910156 98.09375 102.359375 C 97.960938 102.628906 97.78125 102.945312 98.09375 103.214844 C 98.320312 103.394531 98.589844 103.347656 98.769531 103.125 C 99.351562 102.40625 100.070312 102.496094 100.789062 102.675781 C 101.285156 102.808594 101.507812 102.539062 101.417969 101.953125 C 101.238281 99.304688 103.214844 98.046875 106.402344 99.167969 C 104.609375 99.617188 103.84375 100.472656 103.394531 102.046875 Z M 121.179688 103.078125 C 121.585938 102.765625 121.496094 102.316406 121.316406 101.910156 C 120.910156 100.964844 120.191406 100.785156 119.117188 101.011719 C 120.417969 101.503906 120.867188 102.089844 119.472656 102.855469 C 120.058594 103.347656 120.597656 103.574219 121.179688 103.078125 Z M 121.179688 103.078125 "/>
<path style=" stroke:none;fill-rule:nonzero;fill:rgb(12.54902%,42.352942%,37.64706%);fill-opacity:1;" d="M 28.476562 192.246094 C 25.738281 195.753906 21.738281 197.144531 17.742188 198.449219 C 13.382812 199.886719 9.296875 201.59375 6.242188 205.144531 C 5.34375 206.179688 4.132812 206.226562 3.097656 205.28125 C 1.796875 204.15625 0.582031 202.898438 -0.671875 201.730469 C -0.808594 200.5625 -1.210938 199.484375 -0.179688 198.316406 C 0.628906 197.371094 -0.808594 197.28125 -1.347656 196.832031 C -1.078125 195.527344 -0.359375 194.40625 0.449219 193.371094 C 1.976562 191.4375 3.503906 189.550781 5.074219 187.664062 C 9.835938 181.730469 14.597656 175.796875 19.628906 170.089844 C 24.03125 165.101562 28.296875 160.023438 32.609375 155.035156 C 33.058594 155.035156 33.460938 155.035156 33.910156 154.898438 C 34.628906 154.71875 35.484375 153.59375 36.023438 154.449219 C 36.605469 155.304688 35.4375 156.023438 34.898438 156.785156 C 34.765625 156.921875 34.675781 157.054688 34.496094 157.191406 C 31.890625 159.617188 30.453125 162.898438 28.117188 165.550781 C 27.847656 165.863281 27.351562 166.449219 27.890625 166.855469 C 28.429688 167.304688 28.925781 166.855469 29.328125 166.40625 C 29.914062 165.773438 30.453125 165.101562 31.035156 164.472656 C 34.046875 161.324219 37.953125 159.078125 40.242188 155.167969 C 40.648438 154.496094 41.367188 154.40625 42.085938 154.449219 C 44.152344 154.585938 46.128906 154.046875 48.105469 153.59375 C 52.417969 152.5625 56.773438 151.484375 61.085938 150.316406 C 68.945312 148.15625 76.625 145.503906 84.351562 143.035156 C 86.238281 142.40625 87.945312 141.59375 89.472656 140.113281 C 91 138.585938 93.019531 137.953125 95.128906 137.683594 C 94.90625 138.585938 94.050781 138.585938 93.378906 138.898438 C 92.257812 139.484375 90.953125 139.796875 90.324219 141.011719 C 90.730469 141.820312 91.628906 140.921875 91.988281 141.730469 C 91.628906 141.910156 91.3125 142.136719 91 142.226562 C 87.539062 143.527344 84.214844 145.011719 80.578125 145.910156 C 75.773438 147.078125 71.144531 149.234375 66.429688 150.898438 C 64.230469 151.664062 62.972656 153.191406 62.433594 155.347656 C 62.296875 156.023438 62.074219 156.652344 61.757812 157.28125 C 61.039062 158.585938 59.828125 159.257812 58.480469 158.71875 C 56.59375 157.910156 55.109375 158.539062 53.582031 159.4375 C 53.089844 159.753906 52.597656 160.066406 52.058594 159.527344 C 50.53125 157.863281 49.09375 158.808594 47.746094 159.664062 C 47.027344 160.113281 46.261719 160.5625 45.589844 159.933594 C 44.015625 158.539062 42.757812 159.484375 41.457031 160.382812 C 41.050781 160.652344 40.738281 160.964844 40.199219 161.144531 C 37.773438 162.089844 36.15625 163.707031 35.933594 166.449219 C 35.84375 167.167969 35.394531 167.664062 35.035156 168.246094 C 33.597656 170.675781 31.261719 172.605469 30.40625 175.394531 C 29.957031 176.875 29.148438 177.910156 27.9375 178.71875 C 26.722656 179.527344 25.691406 180.515625 25.242188 181.910156 C 24.523438 183.976562 23.355469 185.773438 22.007812 187.484375 C 20.210938 189.820312 17.292969 190.765625 15.539062 193.144531 C 15.089844 193.730469 13.5625 193.773438 14.058594 194.675781 C 14.507812 195.484375 15.765625 194.898438 16.617188 194.675781 C 16.976562 194.539062 17.335938 194.40625 17.605469 194.226562 C 21.246094 191.933594 25.378906 191.257812 29.554688 190.808594 C 29.148438 191.304688 28.835938 191.796875 28.429688 192.292969 Z M 33.011719 163.753906 C 31.710938 165.324219 30.496094 166.988281 29.285156 168.605469 C 29.058594 168.921875 28.699219 169.414062 29.148438 169.773438 C 29.507812 170.089844 29.824219 169.640625 30.09375 169.460938 C 31.933594 168.066406 33.597656 166.496094 34.765625 164.472656 C 35.125 163.886719 35.304688 163.214844 34.40625 162.765625 C 33.910156 163.125 33.328125 163.347656 33.011719 163.753906 Z M 33.011719 163.753906 "/>
<path style=" stroke:none;fill-rule:nonzero;fill:rgb(100%,95.686275%,93.333334%);fill-opacity:1;" d="M 159.628906 93.863281 C 158.820312 94.359375 157.96875 94.855469 157.160156 95.347656 C 156.304688 95.84375 155.226562 95.796875 154.464844 96.472656 C 153.925781 97.324219 153.339844 98.136719 152.800781 98.988281 C 153.925781 100.335938 152.667969 103.214844 150.914062 103.84375 C 148.847656 104.5625 146.828125 104.023438 144.898438 103.753906 C 143.324219 103.527344 142.472656 104.113281 141.394531 104.785156 C 141.394531 104.785156 141.304688 104.875 141.257812 104.921875 C 139.417969 106.496094 137.710938 106.40625 136.226562 104.5625 C 135.734375 104.5625 135.238281 104.5625 134.789062 104.875 C 134.160156 105.460938 133.21875 106.046875 133.488281 106.988281 C 133.710938 107.886719 134.789062 107.527344 135.464844 107.527344 C 136.902344 107.527344 138.292969 107.527344 139.730469 107.527344 C 141.167969 107.527344 141.125 107.617188 140.675781 108.382812 C 139.910156 109.640625 140.675781 109.640625 141.527344 109.863281 C 145.121094 110.945312 148.667969 112.425781 152.578125 112.023438 C 153.65625 111.886719 154.644531 112.515625 155.363281 113.28125 C 156.214844 114.046875 156.664062 114 157.070312 112.875 C 157.472656 111.753906 157.878906 111.304688 158.640625 112.742188 C 159.089844 113.683594 160.078125 114.316406 160.210938 115.574219 C 160.300781 116.5625 160.390625 117.414062 159.3125 117.910156 C 158.597656 118.226562 158.507812 118.855469 158.777344 119.484375 C 159.132812 120.203125 159.761719 120.066406 160.347656 119.84375 C 161.066406 119.527344 161.738281 119.167969 162.007812 118.269531 C 162.414062 116.921875 163.761719 116.695312 164.839844 116.5625 C 165.871094 116.425781 165.828125 117.640625 165.960938 118.40625 C 166.140625 119.125 166.636719 119.394531 167.308594 119.394531 C 167.984375 119.394531 168.703125 119.078125 168.835938 118.316406 C 169.0625 116.875 169.824219 116.292969 171.261719 116.425781 C 172.25 116.515625 172.652344 115.84375 172.652344 114.898438 C 172.652344 113.953125 172.652344 112.425781 173.328125 111.304688 C 175.664062 110.585938 174.496094 108.472656 174.945312 107.035156 C 176.605469 107.527344 177.414062 106.898438 177.460938 104.964844 L 177.460938 101.414062 C 178.359375 101.144531 178.179688 102.945312 179.078125 102.269531 C 179.929688 101.683594 179.527344 100.832031 179.390625 100.066406 C 179.257812 99.304688 178.988281 98.496094 179.390625 97.640625 C 180.199219 98.40625 180.066406 99.753906 181.144531 100.652344 L 181.144531 92.203125 C 182.3125 93.101562 182.492188 94.269531 183.253906 95.167969 C 185.277344 92.605469 183.253906 89.371094 184.691406 86.449219 C 185.632812 88.742188 187.519531 89.503906 189.765625 90.539062 C 189.453125 89.820312 189.273438 89.460938 189.046875 89.054688 C 188.824219 88.652344 188.597656 88.335938 188.328125 87.976562 C 188.195312 87.84375 187.878906 87.664062 188.148438 87.4375 C 188.328125 87.304688 188.597656 87.347656 188.734375 87.574219 C 189.316406 87.753906 189.855469 87.976562 190.574219 88.246094 C 190.441406 86.628906 189.316406 85.191406 189.722656 83.527344 C 189.496094 83.167969 189.273438 82.808594 189.046875 82.496094 C 187.746094 83.617188 186.308594 82.089844 184.738281 82.71875 C 183.613281 83.167969 182.851562 84.605469 181.367188 84.15625 C 180.425781 83.886719 179.527344 84.023438 178.671875 84.023438 C 177.28125 84.875 176.113281 86.179688 174.226562 86.046875 C 173.777344 86.046875 173.640625 86.449219 173.371094 86.675781 C 173.371094 88.742188 171.308594 88.472656 170.363281 89.371094 C 167.625 91.976562 163.984375 92.066406 160.707031 93.011719 C 160.300781 93.234375 159.898438 93.460938 159.492188 93.683594 L 159.582031 93.910156 Z M 159.628906 93.863281 "/>
<path style=" stroke:none;fill-rule:nonzero;fill:rgb(100%,95.686275%,93.333334%);fill-opacity:1;" d="M 121.269531 84.472656 C 120.777344 86.496094 120.730469 86.539062 123.023438 86.628906 C 124.101562 86.628906 124.460938 88.066406 125.898438 87.84375 C 127.199219 87.617188 128.503906 87.304688 129.355469 86.40625 C 131.152344 84.5625 133.398438 83.707031 135.777344 83.214844 C 136.09375 83.214844 136.40625 83.125 136.675781 83.078125 C 137.394531 81.820312 139.058594 81.683594 139.777344 80.5625 C 141.527344 77.863281 143.640625 76.066406 147.050781 76.113281 C 147.5 76.113281 147.816406 75.753906 148.175781 75.574219 C 150.375 74.226562 152.890625 73.863281 155.40625 73.730469 L 156.441406 73.730469 C 156.710938 73.503906 156.933594 73.460938 157.113281 73.863281 C 158.011719 73.863281 158.910156 73.863281 159.761719 73.863281 C 160.210938 73.640625 160.527344 73.59375 160.480469 74.316406 C 162.457031 74.449219 163.175781 72.605469 164.523438 71.796875 C 164.703125 70.496094 165.738281 71.484375 166.320312 71.167969 C 166.726562 71.035156 167.085938 70.988281 167.488281 70.855469 C 167.847656 70.765625 168.074219 69.820312 168.566406 70.71875 L 170.230469 70.71875 C 170.320312 70.269531 170.679688 70.136719 171.039062 70.179688 C 172.832031 70.40625 174.675781 70.046875 176.382812 70.988281 C 176.832031 70.988281 177.28125 70.988281 177.683594 70.898438 C 179.390625 71.347656 181.234375 70.898438 182.894531 71.753906 C 183.570312 72.113281 184.332031 72.066406 184.960938 71.125 C 185.632812 70.136719 186.667969 69.28125 187.609375 70.988281 C 187.878906 70.898438 188.148438 70.855469 188.417969 70.808594 C 190.574219 69.011719 193.316406 69.414062 195.875 69.28125 C 195.695312 68.382812 194.527344 68.875 194.574219 67.933594 C 195.472656 67.527344 196.414062 67.574219 197.3125 67.796875 C 199.960938 68.335938 202.613281 67.976562 205.261719 68.066406 C 205.890625 68.066406 206.699219 68.335938 206.96875 67.394531 C 203.242188 67.394531 199.511719 67.527344 195.785156 67.078125 C 194.484375 67.257812 193.898438 66 192.867188 65.683594 C 191.023438 65.101562 189.273438 64.425781 187.296875 64.382812 C 185.769531 64.382812 184.601562 63.753906 183.480469 62.765625 C 181.59375 60.964844 179.617188 59.304688 177.191406 58.269531 C 176.203125 58.269531 174.496094 57.910156 174.226562 58.269531 C 173.238281 60.203125 171.21875 61.28125 170.363281 63.257812 C 170.230469 63.664062 169.644531 64.15625 169.285156 64.15625 C 167.667969 64.15625 166.050781 64.875 164.433594 64.515625 C 162.503906 64.742188 160.617188 64.023438 158.730469 64.066406 L 158.730469 64.15625 C 158.730469 64.15625 158.597656 64.066406 158.597656 64.066406 C 156.214844 64.246094 153.878906 64.472656 151.320312 64.652344 C 151.8125 65.371094 152.800781 64.875 152.757812 65.59375 C 152.757812 66.136719 152.039062 66.179688 151.589844 66.269531 C 150.0625 67.167969 148.308594 66.855469 146.691406 67.394531 C 145.972656 67.394531 145.210938 67.484375 144.539062 67.527344 C 144.539062 68.335938 145.660156 68.335938 145.929688 69.191406 C 143.910156 69.054688 142.5625 70.539062 140.765625 70.675781 C 140.316406 71.035156 139.820312 71.257812 139.417969 71.617188 C 138.472656 72.335938 137.261719 72.335938 136.453125 73.414062 C 134.566406 75.976562 131.558594 76.425781 128.683594 77.144531 L 128.683594 77.054688 C 128.59375 77.191406 128.503906 77.371094 128.414062 77.503906 C 126.390625 79.933594 124.28125 82.226562 121.765625 84.15625 C 121.628906 84.425781 121.496094 84.605469 121.179688 84.605469 L 121.179688 84.515625 Z M 121.269531 84.472656 "/>
<path style=" stroke:none;fill-rule:nonzero;fill:rgb(1.960784%,19.607843%,21.960784%);fill-opacity:1;" d="M 144.539062 67.484375 C 145.257812 67.484375 146.019531 67.394531 146.691406 67.347656 C 147.996094 65.640625 149.925781 66.40625 151.589844 66.226562 C 152.039062 66.136719 152.710938 66.136719 152.757812 65.550781 C 152.757812 64.832031 151.8125 65.324219 151.320312 64.605469 C 153.878906 64.425781 156.261719 64.203125 158.597656 64.023438 L 158.730469 64.023438 C 160.617188 63.933594 162.503906 64.695312 164.433594 64.472656 C 164.523438 63.394531 163.355469 62 165.917969 61.773438 C 167.535156 61.640625 169.601562 60.921875 170.949219 59.527344 C 171.398438 59.078125 172.25 58.539062 172.070312 57.863281 C 171.9375 57.28125 170.992188 57.191406 170.273438 57.054688 C 167.265625 56.335938 164.253906 55.617188 161.289062 54.898438 C 161.15625 54.898438 161.019531 54.765625 160.886719 54.765625 C 161.289062 56.066406 160.347656 55.976562 159.628906 55.796875 C 158.058594 55.484375 156.53125 55.707031 155.046875 55.886719 C 153.386719 56.023438 151.769531 56.335938 150.105469 55.796875 C 146.78125 56.382812 143.550781 57.371094 140.496094 58.765625 C 137.800781 59.976562 137.484375 60.605469 137.753906 63.707031 C 137.753906 63.933594 137.304688 64.203125 137.035156 64.425781 C 136.003906 65.820312 134.609375 66.808594 133.039062 67.4375 C 131.152344 70.449219 129.042969 73.371094 128.59375 77.101562 C 131.421875 76.382812 134.429688 75.933594 136.363281 73.371094 C 137.125 72.335938 138.429688 72.335938 139.328125 71.574219 C 139.777344 71.257812 140.269531 70.988281 140.675781 70.628906 C 140.496094 69.191406 142.292969 69.503906 142.515625 68.382812 C 142.695312 67.347656 143.550781 67.304688 144.402344 67.4375 L 144.492188 67.527344 Z M 144.539062 67.484375 "/>
<path style=" stroke:none;fill-rule:nonzero;fill:rgb(12.54902%,42.352942%,37.64706%);fill-opacity:1;" d="M 123.875 167.886719 C 122.664062 167.035156 121.628906 165.953125 120.011719 167.347656 C 119.429688 167.84375 118.308594 167.664062 118.398438 166.449219 C 118.488281 165.144531 117.679688 165.011719 116.78125 165.011719 C 115.882812 165.011719 114.578125 165.234375 113.546875 165.820312 C 112.242188 166.539062 111.300781 166.449219 110.804688 164.921875 C 110.402344 163.753906 109.546875 163.347656 108.425781 163.167969 C 106.988281 162.988281 105.417969 163.167969 104.519531 161.59375 C 104.429688 161.460938 104.070312 161.28125 103.84375 161.371094 C 101.957031 162.046875 100.386719 161.234375 98.769531 160.382812 C 97.734375 159.84375 96.566406 160.382812 95.535156 160.785156 C 93.152344 161.820312 91.988281 161.59375 90.324219 159.574219 C 89.15625 158.136719 87.898438 157.820312 86.28125 158.808594 C 83.765625 160.292969 81.429688 162 79.1875 163.84375 C 77.882812 164.964844 76.402344 165.144531 75.007812 164.023438 C 74.019531 163.304688 73.527344 163.933594 72.988281 164.472656 C 71.820312 165.640625 70.921875 167.125 69.125 167.484375 C 71.550781 167.304688 73.839844 168.023438 76.132812 168.652344 C 77.121094 166.628906 79.097656 166.539062 80.890625 166.226562 C 86.550781 166.089844 92.257812 165.773438 97.601562 168.425781 C 98.589844 168.921875 98.992188 169.324219 98.050781 170.226562 C 97.421875 170.855469 96.972656 171.574219 96.746094 172.425781 C 96.476562 173.550781 96.566406 174.585938 97.960938 174.855469 C 99.21875 175.125 99.757812 176.066406 100.207031 177.101562 C 100.65625 178.136719 100.789062 178.089844 101.507812 177.371094 C 102.316406 176.472656 103.351562 175.707031 104.25 174.898438 C 103.800781 174.988281 103.394531 175.035156 102.945312 175.078125 C 101.957031 175.257812 100.925781 175.664062 100.699219 174.089844 C 100.519531 172.605469 101.507812 172.5625 102.542969 172.382812 C 104.878906 171.976562 107.257812 171.976562 109.457031 171.078125 C 109.996094 170.855469 110.582031 170.855469 110.941406 171.4375 C 111.34375 172.023438 111.253906 172.652344 110.714844 173.101562 C 110.265625 173.550781 109.773438 173.910156 109.773438 174.628906 C 110.761719 174.226562 111.390625 173.550781 112.109375 172.785156 L 112.109375 172.425781 C 111.839844 171.214844 111.703125 170.136719 113.320312 169.640625 C 115.746094 168.921875 116.734375 169.054688 117.632812 170.628906 C 118.082031 171.4375 118.710938 171.976562 119.742188 171.527344 C 118.667969 169.59375 119.292969 168.335938 121.449219 168.246094 C 122.304688 168.246094 123.203125 168.246094 124.011719 167.886719 L 123.875 167.796875 Z M 123.875 167.886719 "/>
<path style=" stroke:none;fill-rule:nonzero;fill:rgb(1.960784%,19.607843%,21.960784%);fill-opacity:1;" d="M 119.652344 171.527344 C 118.667969 171.976562 118.039062 171.4375 117.542969 170.628906 C 116.644531 169.054688 115.703125 168.921875 113.230469 169.640625 C 111.660156 170.136719 111.75 171.214844 112.019531 172.425781 L 112.019531 172.785156 C 117.320312 175.484375 122.214844 178.898438 127.15625 182.179688 C 128.054688 182.765625 128.90625 183.394531 129.714844 184.023438 C 130.570312 184.742188 131.78125 185.324219 130.613281 186.808594 C 130.34375 187.167969 130.390625 187.753906 131.152344 188.066406 C 136.183594 190.269531 137.574219 195.347656 134.476562 199.796875 C 134.339844 200.023438 134.117188 200.246094 133.710938 200.832031 C 137.261719 199.527344 138.5625 196.832031 139.910156 194 C 140.898438 196.652344 140.898438 199.304688 140.046875 201.953125 C 139.640625 203.125 139.597656 204.066406 139.957031 205.28125 C 140.71875 207.753906 139.597656 210 138.113281 211.976562 C 139.597656 211.753906 140.449219 211.125 140.988281 209.28125 C 141.664062 207.125 142.652344 205.371094 144.3125 203.707031 C 147.140625 200.964844 147.050781 197.371094 145.792969 193.863281 C 145.210938 194 144.539062 194 144.269531 194.71875 C 144.132812 195.078125 143.550781 195.4375 143.503906 195.078125 C 143.191406 193.371094 141.257812 192.113281 141.886719 190.359375 C 142.335938 189.101562 141.664062 188.785156 141.035156 188.292969 C 140.046875 187.484375 138.789062 186.988281 138.292969 185.683594 C 137.980469 184.832031 137.351562 184.5625 136.585938 184.246094 C 134.925781 183.617188 133.578125 182.628906 133.488281 180.605469 C 128.863281 177.550781 123.875 175.167969 119.609375 171.527344 L 119.699219 171.527344 Z M 119.652344 171.527344 "/>
<path style=" stroke:none;fill-rule:nonzero;fill:rgb(12.54902%,42.352942%,37.64706%);fill-opacity:1;" d="M 66.96875 167.527344 C 66.742188 166.316406 67.6875 165.640625 68.136719 164.695312 C 68.855469 163.214844 67.28125 159.753906 65.710938 159.484375 C 64.769531 159.304688 64.589844 159.933594 64.902344 160.605469 C 65.710938 162.449219 64.589844 162.898438 63.152344 163.214844 C 61.984375 163.484375 60.816406 163.347656 59.601562 163.394531 C 58.613281 163.394531 57.625 163.167969 56.953125 164.292969 C 56.546875 164.964844 55.964844 164.382812 55.46875 164.292969 C 53.808594 163.886719 52.058594 162.808594 50.84375 165.234375 C 50.441406 165.953125 49.585938 165.414062 49.003906 165.234375 C 47.339844 164.742188 45.542969 163.84375 44.960938 166.585938 C 44.960938 166.765625 44.601562 167.035156 44.421875 167.035156 C 42.039062 167.214844 41.277344 169.503906 39.660156 170.628906 C 39.4375 170.765625 39.257812 171.304688 39.257812 171.617188 C 39.257812 173.054688 38.402344 173.953125 37.414062 174.628906 C 35.167969 176.113281 34 178.226562 33.28125 180.742188 C 32.96875 181.820312 33.507812 182.089844 34.449219 182 C 35.078125 181.910156 35.664062 181.144531 36.292969 181.910156 C 37.054688 180.875 38 179.886719 38.582031 178.765625 C 39.75 176.425781 41.679688 175.167969 44.0625 174.359375 C 48.105469 173.054688 52.191406 171.707031 56.367188 170.808594 C 59.960938 170.089844 63.464844 168.652344 67.011719 167.527344 Z M 66.96875 167.527344 "/>
<path style=" stroke:none;fill-rule:nonzero;fill:rgb(1.960784%,19.607843%,21.960784%);fill-opacity:1;" d="M 87.089844 169.550781 C 91.671875 172.832031 96.207031 176.113281 101.015625 179.078125 C 103.171875 180.382812 103.441406 182.71875 103.710938 184.921875 C 103.933594 187.167969 102.722656 188.5625 100.476562 189.324219 C 102.496094 186 102.496094 185.910156 99.757812 182.765625 C 99.351562 182.316406 98.949219 181.820312 98.632812 181.28125 C 98.183594 180.5625 97.601562 180.515625 96.835938 180.605469 C 95.984375 180.742188 96.296875 181.460938 96.164062 181.910156 C 95.757812 183.4375 96.027344 185.011719 95.445312 186.496094 L 95.445312 185.773438 C 95.355469 185.324219 95.175781 184.921875 94.679688 184.875 C 94.546875 184.875 94.230469 184.964844 94.230469 185.054688 C 94.007812 185.503906 94.367188 185.863281 94.636719 186.179688 C 94.816406 186.449219 95.128906 186.496094 95.445312 186.496094 C 95.355469 190.765625 93.871094 194.628906 91.3125 197.953125 C 90.054688 199.527344 89.292969 199.753906 87.855469 199.304688 C 88.574219 198.585938 89.425781 197.953125 90.101562 197.144531 C 91.179688 195.886719 92.347656 194.316406 91.941406 192.875 C 91.449219 191.078125 90.953125 189.503906 91.761719 187.617188 C 90.28125 189.234375 88.753906 190.316406 86.417969 189.730469 C 87.316406 189.054688 88.078125 188.425781 88.304688 187.527344 C 89.292969 184.023438 90.730469 180.472656 87.226562 177.371094 C 86.957031 177.144531 86.820312 176.742188 86.6875 176.382812 C 87.269531 176.695312 87.988281 177.191406 88.484375 176.472656 C 88.886719 175.933594 88.167969 175.484375 87.765625 175.167969 C 87.179688 174.585938 86.550781 174.226562 86.058594 175.304688 C 85.609375 174.269531 84.753906 173.550781 83.765625 173.011719 C 81.160156 171.574219 78.601562 170.046875 76.042969 168.5625 C 77.03125 166.539062 79.007812 166.449219 80.800781 166.136719 C 82.867188 167.214844 85.113281 168.113281 86.957031 169.460938 Z M 92.75 183.167969 C 92.617188 184.246094 92.527344 184.964844 92.390625 185.640625 C 92.121094 186 92.121094 186.359375 92.210938 186.855469 C 92.660156 186.585938 92.660156 186.179688 92.707031 185.863281 C 93.0625 185.144531 93.019531 184.335938 92.707031 183.167969 Z M 93.421875 179.078125 C 93.738281 179.617188 93.871094 180.515625 94.546875 180.203125 C 95.265625 179.886719 94.679688 179.125 94.410156 178.628906 C 93.738281 177.503906 93.738281 175.976562 92.210938 174.808594 C 92.882812 176.425781 92.792969 177.820312 93.46875 179.035156 Z M 91 183.617188 C 91.582031 183.617188 92.078125 182.945312 91.851562 182.226562 C 91.671875 181.550781 91.988281 180.425781 90.953125 180.425781 C 89.921875 180.425781 90.324219 181.460938 90.324219 182 C 90.414062 182.675781 89.785156 183.617188 91 183.574219 Z M 91 183.617188 "/>
<path style=" stroke:none;fill-rule:nonzero;fill:rgb(12.54902%,42.352942%,37.64706%);fill-opacity:1;" d="M 206.96875 67.304688 C 206.65625 68.246094 205.890625 67.976562 205.261719 67.976562 C 202.613281 67.886719 199.960938 68.246094 197.3125 67.707031 C 196.460938 67.527344 195.472656 67.484375 194.574219 67.84375 C 194.4375 68.832031 195.652344 68.292969 195.875 69.191406 C 193.316406 69.324219 190.574219 68.921875 188.417969 70.71875 C 188.957031 70.988281 189.496094 70.945312 190.035156 70.855469 C 191.921875 70.539062 192.371094 70.765625 192.148438 72.605469 C 192.011719 73.414062 192.507812 73.640625 192.957031 74.136719 C 191.113281 75.304688 188.824219 75.167969 186.757812 76.425781 C 187.835938 76.875 188.6875 76.5625 189.453125 76.292969 C 194.84375 74.316406 200.546875 73.550781 206.160156 73.101562 C 210.292969 72.785156 214.15625 71.4375 218.199219 70.898438 C 219.5 70.765625 220.894531 70.179688 222.015625 71.484375 C 222.242188 71.574219 222.554688 71.753906 222.734375 71.617188 C 223.140625 71.394531 222.824219 71.078125 222.644531 70.898438 C 221.476562 69.59375 219.949219 69.011719 218.242188 68.832031 C 218.378906 70.226562 217.074219 70.269531 216.492188 70.089844 C 213.480469 69.191406 211.011719 71.394531 208.136719 71.617188 C 206.207031 71.753906 204.003906 72.335938 201.894531 72.832031 C 201.21875 72.964844 200.546875 72.921875 200.277344 72.246094 C 199.960938 71.527344 200.1875 70.808594 200.859375 70.269531 C 201.488281 69.773438 202.164062 69.683594 202.972656 69.59375 C 204.8125 69.371094 206.835938 70 208.496094 69.503906 C 211.371094 68.695312 214.246094 68.742188 217.121094 68.5625 C 213.839844 67.664062 210.429688 67.347656 207.058594 67.394531 Z M 206.96875 67.304688 "/>
<path style=" stroke:none;fill-rule:nonzero;fill:rgb(12.54902%,42.352942%,37.64706%);fill-opacity:1;" d="M 161.378906 54.898438 C 164.390625 55.617188 167.398438 56.335938 170.363281 57.054688 C 171.039062 57.191406 171.9375 57.324219 172.160156 57.863281 C 172.339844 58.539062 171.488281 59.078125 171.039062 59.527344 C 169.691406 60.921875 167.625 61.59375 166.007812 61.773438 C 163.445312 62 164.613281 63.347656 164.523438 64.472656 C 166.1875 64.875 167.757812 64.203125 169.375 64.113281 C 169.78125 64.113281 170.320312 63.617188 170.453125 63.214844 C 171.261719 61.191406 173.328125 60.113281 174.316406 58.226562 C 174.539062 57.773438 176.203125 58.226562 177.28125 58.226562 C 172.429688 56.066406 167.21875 55.527344 162.097656 54.765625 C 161.917969 54.765625 161.648438 54.898438 161.378906 54.945312 L 161.378906 54.855469 Z M 161.378906 54.898438 "/>
<path style=" stroke:none;fill-rule:nonzero;fill:rgb(1.960784%,19.607843%,21.960784%);fill-opacity:1;" d="M 217.03125 68.472656 C 214.15625 68.605469 211.28125 68.5625 208.40625 69.414062 C 206.746094 69.863281 204.769531 69.28125 202.882812 69.503906 C 202.164062 69.59375 201.398438 69.683594 200.769531 70.179688 C 200.097656 70.71875 199.917969 71.4375 200.1875 72.15625 C 200.457031 72.832031 201.175781 72.875 201.804688 72.742188 C 203.871094 72.246094 206.117188 71.707031 208.046875 71.527344 C 210.921875 71.304688 213.347656 69.101562 216.402344 70 C 216.984375 70.136719 218.242188 70.136719 218.152344 68.742188 C 217.75 68.605469 217.390625 68.5625 216.984375 68.425781 Z M 217.03125 68.472656 "/>
<path style=" stroke:none;fill-rule:nonzero;fill:rgb(12.54902%,42.352942%,37.64706%);fill-opacity:1;" d="M 42.847656 137.460938 C 42.847656 136.066406 43.792969 135.214844 44.464844 134.226562 C 46.082031 132.023438 47.160156 129.324219 49.765625 127.886719 C 50.351562 127.574219 50.351562 126.855469 50.574219 126.269531 C 50.933594 125.414062 51.339844 124.742188 52.417969 124.695312 C 53.132812 124.695312 53.71875 124.292969 54.03125 123.664062 C 54.886719 121.863281 56.367188 120.652344 57.941406 119.527344 C 59.109375 118.71875 59.601562 117.730469 59.019531 116.335938 C 53.269531 121.640625 48.015625 127.347656 43.296875 133.503906 C 42.578125 134.496094 42.039062 135.617188 41.90625 136.875 C 42.128906 137.191406 42.355469 137.550781 42.804688 137.414062 Z M 42.847656 137.460938 "/>
<path style=" stroke:none;fill-rule:nonzero;fill:rgb(12.54902%,42.352942%,37.64706%);fill-opacity:1;" d="M 133.53125 180.605469 C 133.621094 182.628906 134.96875 183.617188 136.632812 184.246094 C 137.441406 184.5625 138.023438 184.832031 138.339844 185.683594 C 138.789062 186.988281 140.089844 187.527344 141.078125 188.292969 C 141.707031 188.785156 142.382812 189.101562 141.933594 190.359375 C 141.304688 192.15625 143.234375 193.371094 143.550781 195.078125 C 143.640625 195.484375 144.179688 195.078125 144.3125 194.71875 C 144.582031 194 145.257812 194 145.839844 193.863281 C 144.761719 189.773438 142.023438 186.855469 138.832031 184.335938 C 137.125 183.035156 135.464844 181.640625 133.53125 180.5625 Z M 133.53125 180.605469 "/>
<path style=" stroke:none;fill-rule:nonzero;fill:rgb(73.725492%,69.411767%,13.725491%);fill-opacity:1;" d="M 109.726562 174.675781 C 109.726562 173.953125 110.175781 173.59375 110.671875 173.144531 C 111.210938 172.652344 111.253906 172.066406 110.894531 171.484375 C 110.535156 170.898438 109.953125 170.898438 109.414062 171.125 C 107.210938 172.023438 104.789062 172.023438 102.496094 172.425781 C 101.464844 172.605469 100.429688 172.652344 100.65625 174.136719 C 100.878906 175.707031 101.914062 175.304688 102.902344 175.125 C 103.351562 175.035156 103.753906 174.988281 104.203125 174.945312 C 104.742188 175.035156 104.921875 173.550781 105.6875 174.585938 C 106.988281 175.753906 108.378906 174.855469 109.773438 174.71875 Z M 109.726562 174.675781 "/>
<path style=" stroke:none;fill-rule:nonzero;fill:rgb(85.882354%,80.784315%,13.333334%);fill-opacity:1;" d="M 178.808594 84.203125 C 179.707031 84.203125 180.605469 84.023438 181.503906 84.335938 C 182.941406 84.785156 183.75 83.347656 184.871094 82.898438 C 186.441406 82.269531 187.835938 83.796875 189.183594 82.675781 C 189.40625 83.035156 189.632812 83.394531 189.855469 83.707031 C 190.394531 81.820312 192.101562 81.101562 193.496094 80.066406 C 190.125 80.695312 186.800781 81.550781 183.570312 82.496094 C 183.03125 82.628906 182.445312 82.945312 181.996094 82.675781 C 180.109375 81.59375 179.390625 82.675781 178.851562 84.246094 Z M 178.808594 84.203125 "/>
<path style=" stroke:none;fill-rule:nonzero;fill:rgb(12.54902%,42.352942%,37.64706%);fill-opacity:1;" d="M 39.390625 143.257812 C 40.601562 143.125 41.816406 142.945312 42.9375 142.449219 C 45.230469 141.371094 45.273438 140.605469 43.207031 138.898438 C 42.625 139.753906 42.039062 140.515625 40.828125 139.796875 C 40.109375 140.875 39.839844 142.136719 39.390625 143.304688 Z M 39.390625 143.257812 "/>
<path style=" stroke:none;fill-rule:nonzero;fill:rgb(12.54902%,42.352942%,37.64706%);fill-opacity:1;" d="M 150.242188 55.753906 C 151.859375 56.246094 153.519531 56.023438 155.183594 55.84375 C 156.710938 55.707031 158.238281 55.484375 159.761719 55.753906 C 160.480469 55.886719 161.378906 55.976562 161.019531 54.71875 C 157.382812 54.316406 153.746094 54.71875 150.285156 55.707031 Z M 150.242188 55.753906 "/>
<path style=" stroke:none;fill-rule:nonzero;fill:rgb(12.54902%,42.352942%,37.64706%);fill-opacity:1;" d="M 31.484375 151.394531 C 34.179688 151.394531 36.472656 148.921875 36.695312 146 C 34.765625 147.617188 33.148438 149.550781 31.484375 151.394531 Z M 31.484375 151.394531 "/>
<path style=" stroke:none;fill-rule:nonzero;fill:rgb(1.960784%,19.607843%,21.960784%);fill-opacity:1;" d="M -0.671875 201.820312 C -0.808594 200.652344 -1.210938 199.574219 -0.179688 198.40625 C 0.628906 197.460938 -0.808594 197.371094 -1.347656 196.921875 C -2.109375 198.675781 -2.246094 200.335938 -0.671875 201.773438 Z M -0.671875 201.820312 "/>
<path style=" stroke:none;fill-rule:nonzero;fill:rgb(85.882354%,80.784315%,13.333334%);fill-opacity:1;" d="M 40.828125 139.753906 C 41.996094 140.472656 42.625 139.753906 43.207031 138.855469 C 43.074219 138.40625 43.027344 137.953125 42.894531 137.503906 C 42.445312 137.640625 42.21875 137.28125 41.996094 136.964844 C 41.367188 137.820312 41.140625 138.808594 40.828125 139.796875 Z M 40.828125 139.753906 "/>
<path style=" stroke:none;fill-rule:nonzero;fill:rgb(12.54902%,42.352942%,37.64706%);fill-opacity:1;" d="M 109.726562 174.628906 C 108.378906 174.765625 106.988281 175.664062 105.640625 174.496094 C 105.640625 175.257812 105.28125 176.203125 106.132812 176.652344 C 106.941406 177.101562 107.617188 176.292969 108.246094 175.933594 C 108.785156 175.574219 109.457031 175.304688 109.726562 174.628906 Z M 109.726562 174.628906 "/>
<path style=" stroke:none;fill-rule:nonzero;fill:rgb(12.54902%,42.352942%,37.64706%);fill-opacity:1;" d="M 195.785156 67.035156 C 199.511719 67.484375 203.242188 67.394531 206.96875 67.347656 C 203.242188 66.675781 199.511719 66.988281 195.785156 67.035156 Z M 195.785156 67.035156 "/>
<path style=" stroke:none;fill-rule:nonzero;fill:rgb(12.54902%,42.352942%,37.64706%);fill-opacity:1;" d="M 86.730469 176.472656 C 87.316406 176.785156 88.035156 177.28125 88.527344 176.5625 C 88.933594 176.023438 88.214844 175.574219 87.808594 175.257812 C 87.226562 174.675781 86.597656 174.316406 86.101562 175.394531 C 86.191406 175.84375 86.328125 176.246094 86.730469 176.472656 Z M 86.730469 176.472656 "/>
<path style=" stroke:none;fill-rule:nonzero;fill:rgb(12.54902%,42.352942%,37.64706%);fill-opacity:1;" d="M 133.128906 67.394531 C 134.699219 66.71875 136.09375 65.773438 137.125 64.382812 C 135.597656 65.101562 133.980469 65.773438 133.128906 67.394531 Z M 133.128906 67.394531 "/>
<path style=" stroke:none;fill-rule:nonzero;fill:rgb(12.54902%,42.352942%,37.64706%);fill-opacity:1;" d="M 121.226562 84.472656 C 121.539062 84.472656 121.675781 84.335938 121.808594 84.023438 C 121.628906 84.15625 121.40625 84.292969 121.226562 84.472656 Z M 121.226562 84.472656 "/>
<path style=" stroke:none;fill-rule:nonzero;fill:rgb(1.960784%,19.607843%,21.960784%);fill-opacity:1;" d="M 128.457031 77.460938 C 128.546875 77.324219 128.636719 77.144531 128.726562 77.011719 C 128.636719 77.144531 128.546875 77.324219 128.457031 77.460938 Z M 128.457031 77.460938 "/>
<path style=" stroke:none;fill-rule:nonzero;fill:rgb(73.725492%,69.411767%,13.725491%);fill-opacity:1;" d="M 120.597656 114.945312 C 122.527344 114.855469 123.652344 113.234375 125.3125 112.425781 C 124.820312 111.527344 123.15625 111.347656 123.472656 110.179688 C 123.695312 109.234375 124.910156 109.910156 125.628906 109.683594 C 125.359375 109.414062 125.089844 109.101562 124.820312 108.832031 L 123.875 108.832031 C 123.113281 109.683594 121.988281 110 120.957031 110.359375 C 119.339844 110.898438 119.878906 111.617188 120.6875 112.335938 C 121 112.605469 121.539062 112.5625 121.765625 113.234375 C 120.550781 113.234375 120.191406 113.953125 120.597656 115.035156 Z M 120.597656 114.945312 "/>
<path style=" stroke:none;fill-rule:nonzero;fill:rgb(73.725492%,69.411767%,13.725491%);fill-opacity:1;" d="M 115.566406 122.179688 C 116.691406 122.855469 117.679688 122.628906 118.53125 121.730469 C 119.339844 120.875 120.101562 120.023438 120.910156 119.167969 C 121.898438 118.136719 121.449219 117.59375 120.238281 117.324219 C 119.519531 118.316406 118.53125 119.035156 117.453125 119.574219 C 116.332031 120.15625 115.613281 120.921875 115.613281 122.226562 Z M 115.566406 122.179688 "/>
<path style=" stroke:none;fill-rule:nonzero;fill:rgb(12.54902%,42.352942%,37.64706%);fill-opacity:1;" d="M 73.570312 113.550781 C 73.390625 113.550781 73.167969 113.550781 73.03125 113.550781 C 72.582031 113.683594 72.222656 113.910156 72.269531 114.449219 C 72.269531 114.539062 72.402344 114.675781 72.449219 114.71875 C 72.988281 114.855469 73.167969 114.40625 73.4375 114 C 73.527344 113.863281 73.570312 113.640625 73.570312 113.460938 Z M 73.570312 113.550781 "/>
<path style=" stroke:none;fill-rule:nonzero;fill:rgb(12.54902%,42.352942%,37.64706%);fill-opacity:1;" d="M 123.875 108.742188 L 124.820312 108.742188 C 125.671875 107.886719 124.730469 107.796875 124.28125 107.484375 C 123.742188 107.753906 123.832031 108.203125 123.875 108.695312 Z M 123.875 108.742188 "/>
<path style=" stroke:none;fill-rule:nonzero;fill:rgb(12.54902%,42.352942%,37.64706%);fill-opacity:1;" d="M 95.488281 137.460938 C 96.296875 137.730469 96.972656 137.59375 97.332031 136.742188 C 96.613281 136.652344 95.9375 136.875 95.488281 137.460938 Z M 95.488281 137.460938 "/>
<path style=" stroke:none;fill-rule:nonzero;fill:rgb(12.54902%,42.352942%,37.64706%);fill-opacity:1;" d="M 97.511719 136.605469 C 97.960938 136.605469 98.09375 136.382812 98.09375 135.933594 C 97.691406 135.933594 97.421875 136.066406 97.511719 136.605469 Z M 97.511719 136.605469 "/>
<path style=" stroke:none;fill-rule:nonzero;fill:rgb(85.882354%,80.784315%,13.333334%);fill-opacity:1;" d="M 101.148438 147.933594 C 101.148438 151.214844 102.585938 152.335938 105.550781 151.574219 C 106.851562 151.257812 108.289062 150.855469 108.875 152.742188 C 109.054688 153.324219 109.59375 153.59375 110.175781 153.683594 C 110.941406 153.820312 112.019531 153.59375 112.558594 153.910156 C 115.207031 155.4375 117.679688 153.910156 120.191406 153.730469 C 122.304688 153.59375 122.886719 152.425781 121.765625 150.585938 C 120.328125 148.246094 119.429688 147.886719 116.824219 148.515625 C 115.433594 148.875 114.128906 148.652344 112.828125 148.113281 C 112.019531 147.753906 111.433594 147.753906 110.714844 148.5625 C 109.683594 149.820312 108.019531 149.460938 107.300781 147.976562 C 107.167969 147.617188 106.941406 147.304688 106.851562 146.988281 C 106.359375 144.5625 104.5625 145.503906 103.171875 145.640625 C 101.734375 145.773438 101.328125 146.945312 101.148438 147.976562 Z M 101.148438 147.933594 "/>
<path style=" stroke:none;fill-rule:nonzero;fill:rgb(85.882354%,80.784315%,13.333334%);fill-opacity:1;" d="M 103.441406 143.347656 C 104.472656 143.257812 106.042969 143.527344 106.132812 141.773438 C 106.222656 140.472656 105.371094 139.617188 103.84375 139.617188 C 102.316406 139.617188 100.835938 140.5625 100.835938 141.953125 C 100.835938 143.347656 101.195312 143.347656 103.484375 143.304688 Z M 103.441406 143.347656 "/>
<path style=" stroke:none;fill-rule:nonzero;fill:rgb(100%,95.686275%,93.333334%);fill-opacity:1;" d="M 129.3125 103.617188 C 128.457031 102.628906 127.648438 103.214844 126.796875 103.617188 C 127.648438 104.515625 128.457031 103.976562 129.3125 103.617188 Z M 129.3125 103.617188 "/>
<path style=" stroke:none;fill-rule:nonzero;fill:rgb(100%,95.686275%,93.333334%);fill-opacity:1;" d="M 136.183594 104.605469 L 136.226562 104.515625 Z M 136.183594 104.605469 "/>
<path style=" stroke:none;fill-rule:nonzero;fill:rgb(12.54902%,42.352942%,37.64706%);fill-opacity:1;" d="M 155.40625 73.730469 C 152.890625 73.863281 150.421875 74.179688 148.175781 75.574219 C 147.816406 75.796875 147.5 76.15625 147.050781 76.113281 C 143.683594 76.023438 141.527344 77.863281 139.777344 80.5625 C 139.058594 81.683594 137.394531 81.863281 136.675781 83.078125 C 138.699219 83.394531 140.046875 82 141.347656 80.921875 C 142.921875 79.617188 144.808594 78.585938 146.558594 78.089844 C 149.117188 77.371094 151.363281 75.84375 154.015625 75.304688 C 154.824219 75.167969 155.183594 74.496094 155.40625 73.730469 Z M 155.40625 73.730469 "/>
<path style=" stroke:none;fill-rule:nonzero;fill:rgb(12.54902%,42.352942%,37.64706%);fill-opacity:1;" d="M 160.839844 93.234375 C 164.164062 92.292969 167.757812 92.203125 170.5 89.59375 C 171.488281 88.652344 173.507812 88.921875 173.507812 86.898438 C 172.117188 87.347656 170.679688 87.304688 169.644531 88.875 C 169.105469 89.730469 167.21875 89.863281 165.917969 90.136719 C 163.761719 90.539062 162.277344 91.753906 160.839844 93.191406 Z M 160.839844 93.234375 "/>
<path style=" stroke:none;fill-rule:nonzero;fill:rgb(12.54902%,42.352942%,37.64706%);fill-opacity:1;" d="M 187.519531 70.898438 C 186.578125 69.191406 185.542969 70.046875 184.871094 71.035156 C 184.242188 71.976562 183.480469 71.976562 182.804688 71.664062 C 181.144531 70.808594 179.300781 71.257812 177.59375 70.808594 C 177.730469 71.214844 178 71.4375 178.3125 71.527344 C 180.109375 71.976562 181.816406 72.605469 183.480469 73.371094 C 184.152344 73.683594 185.320312 74.269531 184.960938 72.472656 C 184.828125 71.886719 185.1875 71.617188 185.902344 71.84375 C 186.800781 72.203125 187.339844 71.84375 187.476562 70.898438 Z M 187.519531 70.898438 "/>
<path style=" stroke:none;fill-rule:nonzero;fill:rgb(12.54902%,42.352942%,37.64706%);fill-opacity:1;" d="M 176.292969 70.855469 C 174.628906 69.863281 172.742188 70.269531 170.949219 70.046875 C 170.542969 70.046875 170.230469 70.179688 170.140625 70.585938 C 172.160156 71.304688 174.226562 71.035156 176.292969 70.855469 Z M 176.292969 70.855469 "/>
<path style=" stroke:none;fill-rule:nonzero;fill:rgb(12.54902%,42.352942%,37.64706%);fill-opacity:1;" d="M 166.277344 71.078125 C 165.738281 71.394531 164.703125 70.359375 164.480469 71.707031 C 165.109375 71.574219 165.871094 71.886719 166.277344 71.078125 Z M 166.277344 71.078125 "/>
<path style=" stroke:none;fill-rule:nonzero;fill:rgb(12.54902%,42.352942%,37.64706%);fill-opacity:1;" d="M 160.4375 74.179688 C 160.570312 73.503906 160.210938 73.503906 159.71875 73.730469 C 159.71875 74.089844 159.628906 74.40625 159.582031 74.71875 C 159.941406 74.628906 160.257812 74.539062 160.347656 74.136719 Z M 160.4375 74.179688 "/>
<path style=" stroke:none;fill-rule:nonzero;fill:rgb(12.54902%,42.352942%,37.64706%);fill-opacity:1;" d="M 168.523438 70.628906 C 168.027344 69.730469 167.804688 70.71875 167.445312 70.765625 C 167.847656 70.855469 168.207031 70.945312 168.523438 70.628906 Z M 168.523438 70.628906 "/>
<path style=" stroke:none;fill-rule:nonzero;fill:rgb(12.54902%,42.352942%,37.64706%);fill-opacity:1;" d="M 157.113281 73.863281 C 156.980469 73.460938 156.710938 73.460938 156.441406 73.730469 C 156.574219 74.136719 156.84375 74.179688 157.113281 73.863281 Z M 157.113281 73.863281 "/>
<path style=" stroke:none;fill-rule:nonzero;fill:rgb(12.54902%,42.352942%,37.64706%);fill-opacity:1;" d="M 124.59375 89.324219 L 124.550781 89.371094 Z M 124.59375 89.324219 "/>
<path style=" stroke:none;fill-rule:nonzero;fill:rgb(85.882354%,80.784315%,13.333334%);fill-opacity:1;" d="M 106.449219 99.035156 C 104.652344 99.484375 103.890625 100.335938 103.441406 101.910156 C 105.820312 101.460938 108.335938 102.179688 110.085938 99.933594 C 109.90625 99.527344 108.785156 100.113281 109.054688 99.167969 C 109.324219 98.046875 110.355469 98.269531 111.253906 98.359375 C 111.121094 97.324219 110.445312 96.875 109.683594 96.652344 C 108.246094 96.246094 106.582031 96.515625 105.867188 94.585938 C 105.730469 94.136719 104.96875 94.316406 104.742188 95.125 C 104.25 96.921875 103.441406 97.054688 101.734375 96.425781 C 99.800781 95.617188 97.734375 95.484375 95.625 96.425781 C 93.78125 97.191406 91.71875 97.550781 89.964844 98.628906 C 88.886719 99.347656 89.964844 100.605469 89.246094 101.414062 C 89.695312 101.730469 90.191406 101.59375 90.460938 101.28125 C 92.257812 99.078125 94.949219 99.707031 97.195312 98.988281 C 98.632812 98.539062 99.21875 99.4375 98.769531 101.054688 C 98.632812 101.503906 98.320312 101.910156 98.09375 102.359375 C 97.960938 102.628906 97.78125 102.945312 98.09375 103.214844 C 98.320312 103.394531 98.589844 103.347656 98.769531 103.125 C 99.351562 102.40625 100.070312 102.496094 100.789062 102.675781 C 101.285156 102.808594 101.507812 102.539062 101.417969 101.953125 C 101.238281 99.304688 103.214844 98.046875 106.402344 99.167969 Z M 106.449219 99.035156 "/>
<path style=" stroke:none;fill-rule:nonzero;fill:rgb(1.960784%,19.607843%,21.960784%);fill-opacity:1;" d="M 119.472656 102.855469 C 120.058594 103.347656 120.597656 103.574219 121.179688 103.078125 C 121.585938 102.765625 121.496094 102.316406 121.316406 101.910156 C 120.910156 100.964844 120.191406 100.785156 119.117188 101.011719 C 120.417969 101.503906 120.867188 102.089844 119.472656 102.855469 Z M 119.472656 102.855469 "/>
<path style=" stroke:none;fill-rule:nonzero;fill:rgb(85.882354%,80.784315%,13.333334%);fill-opacity:1;" d="M 154.417969 96.515625 C 155.183594 95.796875 156.261719 95.84375 157.113281 95.394531 C 155.8125 94.765625 154.914062 95.167969 154.417969 96.515625 Z M 154.417969 96.515625 "/>
<path style=" stroke:none;fill-rule:nonzero;fill:rgb(1.960784%,19.607843%,21.960784%);fill-opacity:1;" d="M 34.40625 162.765625 C 33.910156 163.125 33.328125 163.347656 33.011719 163.753906 C 31.710938 165.324219 30.496094 166.988281 29.285156 168.605469 C 29.058594 168.921875 28.699219 169.414062 29.148438 169.773438 C 29.507812 170.089844 29.824219 169.640625 30.09375 169.460938 C 31.933594 168.066406 33.597656 166.496094 34.765625 164.472656 C 35.125 163.886719 35.304688 163.214844 34.40625 162.765625 Z M 34.40625 162.765625 "/>
<path style=" stroke:none;fill-rule:nonzero;fill:rgb(89.411765%,14.509805%,12.54902%);fill-opacity:1;" d="M 188.824219 87.707031 C 188.6875 87.484375 188.375 87.394531 188.238281 87.574219 C 188.015625 87.796875 188.375 87.933594 188.417969 88.113281 C 188.554688 87.976562 188.6875 87.886719 188.824219 87.753906 Z M 188.824219 87.707031 "/>
<path style=" stroke:none;fill-rule:nonzero;fill:rgb(12.54902%,42.352942%,37.64706%);fill-opacity:1;" d="M 144.539062 67.484375 C 143.683594 67.347656 142.875 67.347656 142.652344 68.425781 C 142.425781 69.550781 140.585938 69.234375 140.808594 70.675781 C 142.652344 70.539062 143.953125 69.054688 145.972656 69.191406 C 145.660156 68.335938 144.628906 68.335938 144.582031 67.527344 Z M 144.539062 67.484375 "/>
<path style=" stroke:none;fill-rule:nonzero;fill:rgb(12.54902%,42.352942%,37.64706%);fill-opacity:1;" d="M 151.679688 66.226562 C 150.015625 66.40625 148.128906 65.640625 146.78125 67.347656 C 148.355469 66.808594 150.152344 67.167969 151.679688 66.226562 Z M 151.679688 66.226562 "/>
<path style=" stroke:none;fill-rule:nonzero;fill:rgb(12.54902%,42.352942%,37.64706%);fill-opacity:1;" d="M 158.777344 64.066406 L 158.640625 64.066406 L 158.730469 64.15625 Z M 158.777344 64.066406 "/>
<path style=" stroke:none;fill-rule:nonzero;fill:rgb(12.54902%,42.352942%,37.64706%);fill-opacity:1;" d="M 92.210938 174.855469 C 92.882812 176.472656 92.792969 177.863281 93.46875 179.078125 C 93.78125 179.617188 93.917969 180.515625 94.589844 180.203125 C 95.308594 179.886719 94.726562 179.125 94.457031 178.628906 C 93.78125 177.503906 93.78125 175.976562 92.257812 174.808594 Z M 92.210938 174.855469 "/>
<path style=" stroke:none;fill-rule:nonzero;fill:rgb(12.54902%,42.352942%,37.64706%);fill-opacity:1;" d="M 90.28125 182.089844 C 90.371094 182.765625 89.742188 183.707031 90.953125 183.664062 C 91.539062 183.664062 92.03125 182.988281 91.808594 182.269531 C 91.628906 181.59375 91.941406 180.472656 90.910156 180.472656 C 89.875 180.472656 90.28125 181.503906 90.28125 182.046875 Z M 90.28125 182.089844 "/>
<path style=" stroke:none;fill-rule:nonzero;fill:rgb(12.54902%,42.352942%,37.64706%);fill-opacity:1;" d="M 95.535156 186.496094 L 95.535156 185.773438 C 95.445312 185.324219 95.265625 184.921875 94.769531 184.875 C 94.636719 184.875 94.320312 184.964844 94.320312 185.054688 C 94.097656 185.503906 94.457031 185.863281 94.726562 186.179688 C 94.90625 186.449219 95.21875 186.496094 95.535156 186.496094 Z M 95.535156 186.496094 "/>
<path style=" stroke:none;fill-rule:nonzero;fill:rgb(12.54902%,42.352942%,37.64706%);fill-opacity:1;" d="M 92.660156 185.863281 C 93.019531 185.144531 92.972656 184.335938 92.660156 183.167969 C 92.527344 184.246094 92.4375 184.964844 92.300781 185.640625 C 92.4375 185.730469 92.480469 185.773438 92.570312 185.863281 Z M 92.660156 185.863281 "/>
<path style=" stroke:none;fill-rule:nonzero;fill:rgb(12.54902%,42.352942%,37.64706%);fill-opacity:1;" d="M 92.390625 185.640625 C 92.121094 186 92.121094 186.359375 92.210938 186.855469 C 92.660156 186.585938 92.660156 186.179688 92.707031 185.863281 C 92.617188 185.773438 92.527344 185.730469 92.4375 185.640625 Z M 92.390625 185.640625 "/>
</g>
</svg>
