<?xml version="1.0" encoding="UTF-8"?>
<svg id="Capa_1" xmlns="http://www.w3.org/2000/svg" version="1.1" viewBox="0 0 848.2 704.8">
  <!-- Generator: Adobe Illustrator 29.3.1, SVG Export Plug-In . SVG Version: 2.1.0 Build 151)  -->
  <defs>
    <style>
      .st0 {
        isolation: isolate;
      }

      .st1 {
        mix-blend-mode: multiply;
      }

      .st2 {
        fill: #82bf73;
      }
    </style>
  </defs>
  <g class="st0">
    <g id="Capa_11" data-name="Capa_1">
      <g class="st1">
        <g>
          <path class="st2" d="M246.2,460.1c-.2-5.1-.4-10.2-.7-15.3-.2-3.6-.4-7.3-.5-10.9,0-5.8-.1-11.7.2-17.5.6-11.6,1.6-23.2,3.2-34.7,1.7-12.6,4-25.1,7.3-37.4,2.6-9.7,5.2-19.4,8.8-28.8,4-10.4,8.2-20.7,12.4-31,1.9-4.6,4.2-9.1,6.1-13.8,4.3-10.9,7.7-22.2,10.1-33.7,1.8-8.8,3.1-17.6,4.8-26.5,3-16.3,6.8-32.4,12-48.2,4.1-12.6,9.1-24.8,14.8-36.8,5.9-12.5,12.8-24.5,20.4-36,8-12.2,16.8-23.9,26.6-34.8,3-3.4,5.8-7,9.1-10.1,4.5-4.2,9.7-7.5,16-8.2,3.8-.4,5.5.7,6.6,4.3,1.8,5.8-.1,10.7-3.9,14.9-7.3,8.2-14.3,16.6-20.3,25.8-6.9,10.7-12.2,22.1-16.3,34.1-3.4,10.1-5.6,20.5-7.1,31-.8,5.8-.9,11.8-1.2,17.7-.1,2.6.5,5.1,1.5,7.4,3.1-.1,3.6-.4,4.4-3,1.1-3.7,2-7.4,3.1-11.1,2-6.3,3.8-12.6,6.2-18.8,2.9-7.6,6.6-14.9,10.8-22,5.8-9.7,12.5-18.7,20.2-27,8.2-9,17.6-16.7,27.7-23.5,8.9-5.9,18.5-10.5,28.5-14.5,7.9-3.1,16-5.7,24.3-7.4,4.7-1,9.5-1.9,14.3-2.3,4.2-.3,8.6-.6,12.8.9,5.4,2,8.7,6,10.6,11.2.7,2,1.8,4,1.3,6.3-.7,3.3-2.3,4.8-5.6,5-16.2.9-31.3,5.4-45.8,12.8-15.9,8.2-29.1,19.5-39.9,33.7-3,4-5.6,8.3-8.4,12.5l.4.5c.6-.3,1.3-.4,1.9-.8,6.8-3.8,13.5-7.8,20.5-11.2,10.9-5.3,21.9-10.4,33.1-15.1,9.5-4,19.3-7.5,29-11,8-2.8,16-5.5,24.2-7.9,14.2-4.2,28.5-8,43.1-10.6,7.8-1.4,15.5-3.1,23.3-4.2,8.4-1.2,16.8-2,25.2-2.9,4.9-.5,9.8-1.1,14.7-1.5,5.1-.4,10.2-.7,15.4-.8,12.2-.2,24.5-.5,36.7-.3,7.9,0,15.8.8,23.6,1.4,5.4.4,10.8.8,16.2,1.3,3.8.4,7.6,1,11.5,1.3,4,.4,8.1.5,12.1,1,9.9,1.4,19.7,2.9,29.5,4.4,2.6.4,5.2,1.1,7.9,1.4,2.8.3,5,1.6,7.2,3.1,6.6,4.2,12.1,9.6,16.9,15.6,2.2,2.8,4.4,5.6,6.3,8.6,3,4.7,2.7,9.5-.8,14-1.8,2.3-3.9,4.4-6.5,5.9-3.7,2.1-7.3,1.6-10.7-.4-4.4-2.5-7.5-6.4-10.4-10.4-2.7-3.7-5.9-6.2-10.6-6.6-4.1-.4-8.1-1.5-12.2-2.2-4.9-.8-9.7-1.7-14.6-2.2-10-1.1-20-2.2-30-3.1-5-.4-10-.6-15.1-.7-6.2-.2-12.4-.6-18.6-.5-7.4,0-14.8.3-22.2.7-9.3.5-18.5,1-27.8,1.9-8.2.8-16.4,2.2-24.6,3.5-6.3,1-12.6,2.1-18.9,3.4-14,2.9-28,6-41.5,10.7-7,2.4-14.1,4.4-21.1,6.7-4.9,1.6-9.6,3.6-14.4,5.4-.4.2-.8.4-1.2,1,3.8-.5,7.5-1,11.3-1.4,8.9-1,17.8-2,26.8-2.8,16.9-1.5,33.9-1.5,50.8-1,7.9.2,15.7.9,23.6,1.6,6.5.5,12.9,1.2,19.4,1.9,4.4.5,8.8,1.1,13.2,1.8,7.5,1.3,15,2.5,22.4,4,7.3,1.5,14.7,3.2,21.9,5.1,10.5,2.8,21,5.5,31.3,8.8,10.2,3.2,20.2,7,30.1,10.9,9.5,3.8,18.9,8,28.2,12.2,5.4,2.4,10.7,5.1,15.8,8,2.5,1.4,4.9,3.4,6.7,5.7,2.4,3,1.7,6.8,1.1,10.3-.7,4.1-2.7,7.8-5,11.3-2.1,3.4-5.6,4.6-9.5,3.3-2.1-.7-4-2-5.9-3-2.1-1.1-4.1-2.4-6.3-3.3-11-5.1-22-10.2-33.1-15-15.2-6.5-30.8-11.8-46.7-16.1-5.2-1.4-10.4-3.1-15.7-4.4-8-1.9-16-3.5-24-5.2-4.7-1-9.5-1.9-14.2-2.7-5.5-.8-10.9-1.5-16.4-2.1-8.2-.8-16.5-1.6-24.7-2.2-7.3-.5-14.6-.8-21.9-.8-8.7,0-17.3-.1-26,.3-9.9.4-19.8,1.4-29.7,2.1v.6c3,.2,6,.4,9.1.6,7.8.6,15.5,1.1,23.3,1.8,12.1,1.1,24,3.2,35.9,5.9,10.1,2.3,20.1,5.1,29.9,8.3,13.5,4.4,26.7,9.8,39.6,15.7,6.7,3.1,13.2,6.7,19.7,10.2,13.8,7.5,26.8,16.3,39.3,25.8,10.2,7.7,19.8,16,28.9,25,4.3,4.3,7.6,9.5,9.4,15.5.8,2.8,2.2,5.6,2.7,8.4,1,5.3,0,10.4-3.3,14.8-2.8,3.6-8.7,3.8-12.3-.8-5-6.4-10.5-12.3-16.3-18-9.7-9.4-20.2-17.9-31.6-25.3-6.8-4.4-13.7-8.6-20.8-12.5-12.7-6.9-26.1-12.2-39.9-16.3-7.8-2.3-15.8-4.2-23.8-5.8-6.1-1.3-12.2-1.9-18.4-2.7-3.1-.4-6.2-.6-9.5-.3.5.3,1,.7,1.5,1,6.1,3.9,12.2,7.7,18.3,11.5,7.4,4.7,14.4,10.1,21.2,15.7,4.7,3.9,9.5,7.8,13.9,12,6.2,5.9,12.2,12,18.1,18.3,7.8,8.4,14.9,17.4,21.5,26.7,8.4,11.8,15.8,24.1,22.3,37,4.3,8.5,8,17.4,11.9,26.1.4,1,.6,2.1.7,3.1.9,7.4,1.8,14.9.4,22.4-.3,1.5-.8,3-1.3,4.5-.7,1.9-2.3,2.5-4.1,2.2-4.8-.8-9.1-2.6-11.5-7.2-3.3-6.3-6.4-12.7-9.8-18.9-6-11.1-12.7-21.8-20.3-32-6.6-8.9-13.7-17.4-21.2-25.4-4.6-5-9.5-9.7-14.5-14.3-5.5-5-11.1-10.1-17.1-14.6-8.1-6.1-16.5-11.9-25.1-17.3-7.2-4.6-14.7-8.5-22.1-12.6-1.2-.7-2.6-1.2-4.2-1.3,1.8,1.4,3.5,2.8,5.3,4.1,9.4,7.2,18.2,15.2,26.6,23.6,8.3,8.3,16.1,17.1,23.3,26.4,6.4,8.3,12.3,16.9,17.9,25.8,3.7,5.8,7,11.9,10.1,18.1,3.8,7.6,7.3,15.3,10.6,23.1,4.5,10.8,8.5,21.9,11.2,33.3,1.7,7.2,3.6,14.3,4.9,21.6,1.5,8.2,2.5,16.6,3.5,24.9.7,5.5,1.3,11,1.5,16.5.2,7.4-5,14.4-13.1,15.4-7,.9-13.5-2.8-16.3-9.2-.5-1.2-.7-2.7-.7-4,0-3.8.2-7.5,0-11.3-.5-7.8-1.3-15.5-2-23.2-.9-9.2-3.2-18.1-5.8-26.8-2.6-8.7-5.8-17.1-9.6-25.4-4.8-10.5-10.2-20.7-16.8-30.3-6.5-9.6-13.8-18.5-21.8-26.9-6.2-6.6-12.7-12.7-19.6-18.4-8.5-7.1-17.5-13.5-27.2-19-4.8-2.7-9.8-5.2-14.7-7.7-.8-.4-1.8-.8-2.9-.7,1.8,2.3,3.5,4.6,5.3,6.9,7.9,10.1,15.3,20.6,21.7,31.7,7.3,12.7,13.6,25.8,19.1,39.4,4.5,11,8,22.2,11.1,33.6,3.5,13.5,5.9,27.1,7.5,41,1,9.1,1.8,18.2,1.6,27.4,0,4.8.2,9.7,0,14.5-.2,5.6-.6,11.2-1.3,16.8-1.2,9-2.6,17.9-4,26.9-.4,2.4-.7,4.9-1.4,7.2-1.7,6-5.5,10.3-11,13.2-9.2,4.9-18.7,8.8-28.7,11.6-4.5,1.3-9.2,2.3-13.8,3.5-.3,0-.6.3-1.6.7,3.1.7,5.5,1.2,8,1.7,8.4,1.7,16.7,4.1,24.7,7,4.9,1.8,5.6,2.9,4.7,8.1-.5,2.7-1.6,4.8-3.9,6.6-5.2,4-10.1,8.5-15.4,12.5-9.6,7.3-20.1,13.2-30.9,18.5-7.8,3.8-15.7,7.4-23.5,11.1-.5.2-1.1.4-1.7.6-8.1,2.7-16.4,5.2-24.4,8.2-7.2,2.7-14.2,6-21.1,9.3-13,6.2-25.8,13-38.1,20.4-12.2,7.3-24.2,14.9-35.8,23.2-6.9,5-14.6,8.2-22.6,10.7-5,1.6-9.9,1.1-14.8-.6-1.6-.6-3.2-1-4.7-1.7-1.5-.8-3-1.7-4-2.9-2.4-2.8-2.2-4.8.7-7.1,2.8-2.3,5.8-4.4,8.7-6.5,3.5-2.5,7.2-4.8,10.8-7.2,1.7-1.1,2.3-3.3,1.6-5.5-.8-2.1-1.8-2.9-4.4-2.5-4.5.7-8.9,1.7-13.4,2.5-8.2,1.3-16.3,2.6-24.5,3.8-6.3.9-11-2.2-15.1-6.5-1.3-1.4-2.3-3.2-3.2-4.9-1-1.9-.2-3.7,1.4-5,1.3-.9,2.6-1.8,4.1-2.4,7.2-2.8,14.5-5.5,21.8-8.3,5-1.9,9.9-3.8,14.9-5.8,2.4-.9,4.8-1.9,7.1-2.8.8-.3,1.6-.8,2.3-1.3.3-.2.4-1,.2-1.3-.1-.3-.7-.6-1.1-.7-.4-.1-.8,0-1.2,0-3.4.7-6.8,1.3-10.1,2.2-6.2,1.6-12.5,2.3-19,2.3-4.8,0-7.5-2.6-7.2-7.3.1-2.2.4-4.3.8-6.4.3-1.5,1.3-2.5,2.9-3,13.9-4.4,28.1-7.7,42.6-9.5,12.9-1.6,25.9-2.2,38.9-2.3,6.1,0,12.2,0,18.3.2,4.9.2,9.8.9,14.8.9,7.9,0,15.8-.3,23.6-1,15.6-1.5,30.8-4.8,45.3-10.8,2-.8,3.8-1.8,6.4-3-3.7-1.5-6.6-2.8-9.7-3.9-12.6-4.8-25.5-8.7-38.6-12.3-5.9-1.7-11.7-2.2-17.7-2.1-11.4,0-22.8,0-34.1,0-13.4,0-26.9.3-40.3.4-6.4,0-12.7-.2-19.1-.2-4.3,0-8.6.3-12.9.3-7.2,0-14.4,0-21.6,0-8.8,0-17.6,0-26.4,0-.8,0-1.6,0-2.6.2-.3,1.8-.6,3.6-.8,5.5-.4,6.7-.8,13.4-1.1,20-.3,6.9-.6,13.8-.9,20.7-.4,8.4-.8,16.7-1.2,25.1-.2,2.8-.5,5.7-.9,8.5-.6,3.9-2.9,6.8-5.7,9.4-1.3,1.2-3,1.4-4.7,1.5-5.5.3-10.8-.5-16.1-1.5-5.8-1.1-11.6-2.5-17.2-4.1-17.2-4.8-33.2-12.3-48.7-21.1-16.8-9.7-32.5-21-47.7-32.9-5.2-4.1-10.3-8.3-15.4-12.5-.4-.3-.8-.5-1.3-.9-4.5,2.8-9.2,2.8-13.9,1-5.5-2.1-10.3-5.4-14.5-9.5-4.4-4.4-8.8-8.7-13.2-13.2-3-3.1-5.9-6.3-8.9-9.5-3.6-3.8-7.2-7.6-10.7-11.5-1.5-1.7-3.3-2.3-5.5-2.4-5.3-.3-10.6-.4-15.9-1.6-3.1-.7-5.9-2-8.2-4-3.3-2.9-6.4-6.1-9.4-9.4-1.9-2-2.3-4.7-2.5-7.4-.1-1.7.7-2.8,2.1-3.1,1.8-.4,3.7-.6,5.5-.4,6,.9,12.1,1.9,18,3.2,2.7.6,5.2,2.1,8.2,3.4-.1-.9-.1-1.7-.4-2.4-1.8-4.5-3.7-8.9-5.6-13.4-.6-1.4-1.1-2.7-1.8-4-1.7-3.2-.6-5.8,1.4-8.4,2-2.5,4.7-2.8,7.5-2.3,4.4.7,8.2,2.8,11.9,5,3.4,2,6.8,3.8,10.5,5.8.6-2.8-.6-5-1.1-7.2-.8-3.9-1.7-7.9-2.3-11.8-.4-2.4.3-4.4,2.6-5.7,2.4-1.4,4.7-1,6.6.5,2.6,2,5,4.2,7.2,6.5,4.7,5,9.3,10.2,13.9,15.3,4.2,4.7,8.3,9.5,12.7,14.1,1.8,1.9,3.2,4,4.3,6.3,2.8,6.4,5.5,12.9,8.3,19.3,2.3,5.3,4.8,10.6,7.2,15.8.2.5.5,1.1.8,1.6,1.2,2.6,3.3,3.9,6.1,3.7,3.2-.3,5.3,1.5,7.3,3.6,1.9,2,4,3.8,6.1,5.5,10.8,8.8,22.5,16.4,34.6,23.2,10.5,5.9,21.3,11.2,32.5,15.7,5.6,2.3,11.1,4.5,16.7,6.8.5.2,1.1.3,1.7.5.2-.4.4-.7.4-1,.3-5.4.5-10.8.9-16.2.5-8,1.1-16.1,1.4-24.2,0-1.5-.7-3-1.4-4.4-2.7-5.8-5.7-11.5-8.3-17.3-6.6-14.9-12.3-30.1-17.1-45.7-3.6-11.8-6.6-23.7-9-35.9-1.4-7-2.6-14.1-3.6-21.3-.9-6.2-1.2-12.5-2.1-18.8-1.3-10-1.5-20.1-1.7-30.1-.2-10.4,0-20.7,1-31,.9-8.9,1.8-17.9,3-26.7,1.6-12.1,4-24.1,7-36,2-8,4.1-16,6.6-23.9,2.8-8.8,6.1-17.5,8.9-26.3,2-6.1,5-11.7,7.6-17.5,4.8-10.3,8.9-20.9,12.3-31.7,1.7-5.4,3.4-10.7,4.6-16.2,1.2-5.2,1.7-10.5,2.4-15.8,1.1-8-.1-15.9-.7-23.9,0-1.3-.5-2.5-.7-3.9-1.4.6-2,1.6-2.8,2.6-3.4,4-7.1,7.7-11.4,10.7-4.3,3-8.9,5-13.9,6.4-2.4.7-2.3.7-2.5,3.2-.6,7.9-1.2,15.7-1.8,23.6,0,.1,0,.2,0,.3,0,3.3-.1,6.6-2.5,9.2-3.6,4-7.8,6.9-13.1,8.1-2.1.5-3.9-.6-4.9-2.1-1.1-1.7-2-3.5-1.8-5.8.5-7.1.9-14.2,1.4-21.3.5-7.5,1.2-14.9,1.6-22.4,0-1.1-.6-2.5-1.4-3.4-2.7-3.2-5.8-5.9-9.9-7.2-2.2-.7-4.2-1.7-6.6-2.7-.3,2.7-.6,4.9-.8,7.2-.7,9.4-1.3,18.9-1.9,28.3-.2,3.5-.4,7.1-.5,10.6-.1,6.6-5.3,10.7-10.1,11.2-7.2.8-11.8-4.3-13-9.2-.4-1.5-.3-3.1-.1-4.7.4-4.3.9-8.6,1.3-12.9.8-9.2,1.5-18.4,2.2-27.7.7-8.9,1.2-17.9,2-26.8.7-7.9,1.6-15.9,2.7-23.8,1.3-9.4,4.1-18.4,8.3-27,3.4-7,7.2-13.8,12.5-19.6,9.3-10.1,20.5-17.3,34.3-19.6,9.8-1.6,19.4-.8,28.9,2.3,8.6,2.9,16.2,7.4,22.4,13.8,8.1,8.3,13.5,18.1,15.5,29.7,1,5.9,1.2,11.7.8,17.6,0,1.4.2,2.9.2,4.4-.3,7.4-.6,14.8-1,22.2-.3,6.3-.6,12.6-1.3,18.9-1.1,9.1-2.4,18.2-4,27.2-3.5,20.1-8.8,39.7-15.7,58.8-2.9,8-6.3,15.7-9.7,23.5-2.3,5.4-5.1,10.6-7.4,16.1-4.1,9.6-7.4,19.5-10.1,29.6-2.2,8-4.4,16-6.1,24-2,9.6-3.6,19.4-5.1,29.1-1,6.4-1.6,12.9-2.3,19.4-.2,2.3-.2,4.7-.2,7.1-.2,9.5-.6,19-.5,28.4,0,9.8.8,19.5,2.1,29.2,1,7.3,2.3,14.4,4.6,21.3,1.4,4.3,3.4,8.4,5.1,12.6.2.4.5.8.7,1.2.1,0,.3,0,.4-.1h0ZM423.1,243h0c-7,0-14,0-21,0s-6.9-.1-10.4,0c-4.2.1-7.6,3-8.3,7.1-.2,1.2.2,2.5.2,3.7,0,3.3,0,6.5,0,9.8v21.7c0,4.9,0,9.7,0,14.6.1,5.1-5.1,11.4-11.9,11.3-5.5,0-11.1,0-16.6-.2-5.8-.2-9.9,3.8-9.8,9.7.1,4.4,0,8.9,0,13.3,0,6.6-6,11.8-12,11.7-7.4-.1-14.8,0-22.2,0-7.8,0-15.6,0-23.4.1-5.4,0-9.4,4.1-8.8,9.5.1,1.2.1,2.4.1,3.5,0,10.4-.1,20.7-.2,31.1,0,5.7,0,11.4,0,17.1,0,3.8-.3,7.6-.4,11.5,0,4.8,3.8,9,8.6,9.1,6.2.2,12.4.4,18.6.4,9.3,0,18.6.2,27.9,0,5.5-.1,11.9,4.4,12.2,10.9.1,2.1.1,4.3,0,6.4,0,4-.3,8.1-.3,12.1,0,1.6,0,3.5.6,4.9,1.6,3.5,4.5,5.5,8.4,5.5,5.4,0,10.9,0,16.3,0,2.1,0,4.1.2,6.2.6,1,.2,2.1.7,2.9,1.4,3.4,2.7,5.1,6.2,4.9,10.6-.1,5-.2,10-.2,15,0,9,0,18.1,0,27.1,0,6,4.9,10.7,10.9,10.8,5,0,10,.3,15,.3,14.4.1,28.9.2,43.3.2,1.6,0,3.2-.2,4.7-.7,2.5-.8,4.8-2,5.5-4.8.4-1.5.7-3.1.7-4.7.2-10.4.4-20.9.6-31.3,0-2.1,0-4.3-.1-6.4,0-3.5-.4-7,.8-10.4,1.8-5.3,6.7-8.2,11.2-8.1,6.2,0,12.4.3,18.6.6,2.1,0,4-.6,5.3-2.1,1.9-2.3,3.5-4.8,3.5-8,0-6.4,0-12.8.2-19.2,0-1.7.4-3.6,1.3-5,2.4-3.8,5.9-6,10.6-5.7,1.1,0,2.2,0,3.3,0,13.4,0,26.9,0,40.3.1,5,0,9.7-4.2,9.6-9.1-.2-6.6.3-13.2.3-19.8.2-13.6.3-27.2.4-40.9,0-2.7.1-5.5-1.5-8-1.8-2.8-4.9-5.7-9.5-5-2.2.3-4.5.2-6.7.2-2.5,0-5-.3-7.5-.4-4.2,0-8.4,0-12.5,0-5.9,0-11.8-.1-17.8-.2-5.8,0-11.4-4.9-11.4-12.6,0-4.6.4-9.2.5-13.9,0-1-.3-2.2-.8-3.1-1.8-3.1-4.6-4.8-8.3-4.8s-8.9,0-13.3,0c-2.8,0-5.5-.1-8.2-.5-6.3-1-10.5-6.9-9.7-13.2.2-1.8.3-3.5.4-5.3,0-3.8.1-7.5.1-11.2,0-9.2-.1-18.4-.1-27.5,0-4.8-3.5-8.4-7.4-9.2-2.2-.5-4.5-.6-6.8-.7-9,0-18,0-27,0h0ZM263.7,93c0-17.3-14.8-31.6-32.7-31.6-18.1,0-32.8,14.7-32,33.3.7,16.4,14.6,30.6,31.9,30.9,19.1.3,33.6-15.5,32.9-32.6h0Z"/>
          <path class="st2" d="M184.1,428.1c4,4.1,5.2,9.2,6.2,14.4.8,3.9-.4,7.6-2.7,10.9-2.2,3.2-1.1,6.5,2.6,7.8.4.1.7.3,1.1.4,5.4,1,7.7,4.8,8.6,9.7.7,4.1.6,8.1-.6,12.2-1.8,6.1-4,12.1-7.1,17.8-1.2,2.1-2,4.4-.2,6.6,1.4,1.8,3.6,1.8,4.9-.2.7-1,1.2-2,1.9-3,1.9-2.8,5.2-4.2,8.2-3.1,6.4,2.4,11.5,6.5,13.8,13.2.5,1.5.6,3.1.7,4.7.2,3.4.4,6.9.4,10.3,0,5.8,2,11,5.3,15.7,1.8,2.7,3.7,5.4,3.8,8.8,0,1,.2,2.1,0,3.1-1.1,5.9-2.9,11.5-6.8,16.1-1.2,1.4-2.7,2.7-4.3,3.5-3.9,2.1-5.9,1.3-9.2-1.8-4.1-3.9-5.8-9.1-8.2-13.9-1.6-3.2-2.8-6.7-4-10.2-.6-1.8-.8-3.7-1.3-5.4-.5-1.8-1.1-3.6-1.9-5.2-1-2-1.7-2.2-3.8-1.3-2.7,1.2-5.4,2.3-8.2,3.4-4.2,1.6-8.1.7-11.9-1.4-1.5-.8-2.9-1.8-4.3-2.6-5.3-3.3-8.4-8.2-10.5-13.9-.3-.9-.5-1.9-.9-2.8-1.9-5.5-.2-10.2,2.8-14.8,2-3.1,4.7-5.3,7.5-7.4,4.2-3.2,8-6.8,11.1-11,1.6-2.1,3.1-4.3,3-7.3-2.5-.8-4.8,0-7.2.5-2.2.3-4.5.8-6.7,1-2,.2-3.7-.6-4.8-2.3-3.3-5-5.1-10.4-5-16.5,0-2.5,1-4.6,2.5-6.5,1.1-1.4,2.5-2.5,3.7-3.8,1.8-2,4-4,2.8-7.3-4.1-1-5.4-4.1-5.9-7.9-.5-3.4-1.1-6.7-.8-10.3.3-4.3,2.5-7.6,4.5-11,4.1-6.7,8.3-13.4,12.4-20.1,1.6-2.7,2.5-5.8,2.8-9,.1-1.4-.3-2.9-.9-4.2-3.4-7.1-7.2-14-12.1-20.2-6.9-8.6-6.4-19-1.2-27.7.9-1.6,2.3-3,3.7-4.1,5.1-3.9,9.1-8.8,13.1-13.6,2.5-2.9,3.8-6.4,4.7-10,1.3-5.2-.4-9.9-3.4-14.2-2.9-4.1-6.2-7.8-9.9-11.3-4-3.8-6.4-8.5-7.3-13.9-.8-5,.2-9.7,3.5-13.6,2.8-3.3,5.9-6.4,8.9-9.6,1.7-1.8,3.5-3.5,5.1-5.4,2.8-3.4,3.6-7.2,1.7-11.3-1.9-4-3.9-7.9-5.9-11.9-1.7-3.4-1.9-6.5.5-9.7,2.1-2.9,4.4-5.5,8.2-6.4,3.7-.8,6.9-.2,9.5,2.6,5.5,5.7,9.7,12.1,12.1,19.7,1.3,4.1,1.4,8.1,1.6,12.2.2,4.8-2.6,8.6-5.3,12.2-2.9,3.9-5.9,7.7-8.6,11.7-3,4.4-4.5,9.4-4.2,14.8,0,.9.3,2,.9,2.7,1.4,2,2.9,4,4.5,5.8,2.4,2.7,5,5.3,7.4,8,3.3,3.8,3.8,8.5,3.6,13.3-.2,6.1-2.8,11.1-6.3,15.9-3.9,5.3-7.6,10.8-10.9,16.5-3.6,6.5-4.1,13.4-1.6,20.6,2.9,8.4,6.2,16.6,10.3,24.5,1.9,3.7,1.8,7.4.6,11.2-1.9,6-3.7,12.1-6.7,17.6-2.6,4.8-5.2,9.5-7.8,14.2-.6,1-1.1,2-1.6,3.1h0Z"/>
          <path class="st2" d="M410.5,307.2c-.2-7.1-.6-14.1-.6-21.2,0-12.1,10-19.3,20.4-16.1,5,1.6,8.5,5.1,10.1,10,.6,1.9.6,4.1.6,6.1-.2,6.6-.7,13.2-.9,19.8-.2,8.1-.2,16.2-.1,24.3,0,3.8,1.9,5.8,5.7,6.1,3.9.2,7.9.2,11.8.3,2.9,0,5.7.2,8.6.5,5,.5,11,5.1,12.3,11,.5,2.1.7,4.2.5,6.4-.4,4.6-.3,9.2.7,13.8.8,3.5,1.4,3.9,4.8,3.9,5.1,0,10.3,0,15.4,0,5.2,0,10.4.1,15.5.1,4.6,0,9.3-.3,13.9-.3,10.8,0,17.7,9.9,14.8,19.7-1.9,6.5-8.4,11.1-14.6,10.8-6.6-.3-13.2-.2-19.9-.3-6.1,0-12.2-.3-18.3-.4-2.3,0-4.5.2-6.8.4-2.9.3-4.9,2.2-5.3,5.2-.4,3.8-.5,7.7-.7,11.5-.2,3.3,0,6.7-.5,10-1,7-7.9,12.5-14.1,12.6-4,0-8,0-12,0-2.1,0-4.3,0-6.4,0-2.9,0-5.5,3.1-5.2,6,.2,1.8.4,3.5.4,5.3,0,11.5,0,22.9-.2,34.4,0,4,0,8.1-2,11.8-2.8,5.1-7,8-12.8,8.4-6.1.4-10.9-2.3-14.2-7.5-1.7-2.7-2.1-5.7-2-8.8.2-7.3.5-14.6.7-21.9.1-6.3,0-12.6.1-18.9.1-4.2-1.7-7.5-6.9-7.8-6-.3-12-.9-18-1-8.5-.2-14.6-8-14.4-15.4.2-5.9.2-11.8.2-17.8,0-3.1-2.3-5.5-5.4-5.6-3-.1-6.1-.1-9.1-.1-5,0-10.1-.2-15.1-.3-6.8,0-13.6,0-20.5,0-7.9,0-13.9-4.8-15.6-12-1.9-7.6,2.8-15.6,10.3-17.9,2.1-.6,4.1-1,6.4-.6,2.4.4,4.9.3,7.4.3,12.1,0,24.1-.1,36.2,0,3.5,0,5.1-2.3,5.1-4.8.1-4.2.1-8.5-.4-12.6-1.3-10.4,6.7-18.8,17.3-17.9,5.5.5,11,.3,16.5-.4,3.1-.4,5-2.1,5.4-5.2.4-3.5.5-7.1.6-10.6,0-4.4,0-8.9,0-13.3h.1,0Z"/>
          <path class="st2" d="M229,120.2c-10.4,0-18.4-8.5-18.6-18.1-.2-11.1,7.6-18.9,18.5-18.9,10.4,0,18.3,7.4,18.8,18.6.4,9-7.4,18.6-18.7,18.4Z"/>
        </g>
      </g>
    </g>
  </g>
</svg>