<?xml version="1.0" encoding="UTF-8"?>
<svg xmlns="http://www.w3.org/2000/svg" version="1.1" viewBox="0 0 607.1 53.8">
  <defs>
    <style>
      .cls-1 {
        fill: #ed7219;
      }
    </style>
  </defs>
  <!-- Generator: Adobe Illustrator 28.6.0, SVG Export Plug-In . SVG Version: 1.2.0 Build 709)  -->
  <g>
    <g id="Capa_1">
      <g>
        <path class="cls-1" d="M58.7,47.6v-30.2h-12V6.6h37.8v10.7h-12v30.2h-13.9Z"/>
        <path class="cls-1" d="M102.3,47.6V6.6h13.9v40.9h-13.9Z"/>
        <polygon class="cls-1" points="150.6 37.1 150.6 31.7 167.9 31.7 167.9 21.7 150.6 21.7 150.6 17 170.3 17 170.3 6.5 137 6.5 137 47.6 171.1 47.6 171.1 37.1 150.6 37.1"/>
        <polygon class="cls-1" points="217.6 6.5 217.6 25.1 202 6.5 190.7 6.5 190.7 47.6 204.2 47.6 204.2 28.9 219.7 47.6 231 47.6 231 6.5 217.6 6.5"/>
        <polygon class="cls-1" points="265.5 37.1 265.5 31.7 282.8 31.7 282.8 21.7 265.5 21.7 265.5 17 285.2 17 285.2 6.5 251.9 6.5 251.9 47.6 286 47.6 286 37.1 265.5 37.1"/>
        <path class="cls-1" d="M346.2,47.6v-30.2h-12V6.6h37.8v10.7h-12v30.2h-13.9Z"/>
        <path class="cls-1" d="M410.8,48.4c-3.4,0-6.4-.5-9.2-1.6-2.9-1.1-5.3-2.6-7.3-4.5-2-1.9-3.7-4.2-4.8-6.8s-1.8-5.4-1.8-8.6.5-6,1.8-8.6c1.1-2.6,2.7-4.9,4.8-6.8s4.5-3.4,7.3-4.5,5.8-1.6,9.2-1.6,6.4.5,9.2,1.6c2.9,1.1,5.3,2.6,7.3,4.5,2,1.9,3.7,4.2,4.8,6.8s1.8,5.4,1.8,8.6-.5,6-1.8,8.6c-1.1,2.6-2.7,4.9-4.8,6.8s-4.5,3.4-7.3,4.5-5.8,1.6-9.2,1.6ZM410.8,37.2c1.2,0,2.4-.3,3.5-.7s2-1.1,3-2c.8-.8,1.5-1.9,1.9-3.3.4-1.2.7-2.7.7-4.4s-.3-3-.7-4.4c-.4-1.2-1.1-2.3-1.9-3.3-.8-.8-1.8-1.5-3-2s-2.3-.7-3.5-.7-2.4.3-3.5.7c-1.1.4-2,1.1-3,2-.8.8-1.5,1.9-1.9,3.3s-.7,2.7-.7,4.4.3,3,.7,4.4c.4,1.2,1.1,2.3,1.9,3.3.8.8,1.8,1.5,3,2,1.1.4,2.3.7,3.5.7Z"/>
        <path class="cls-1" d="M453.1,47.6V6.6h20.1c4.6,0,8.6.8,12.1,2.4s6.1,3.9,8.2,7.1c1.9,3,3,6.7,3,10.9s-1,7.9-3,11c-1.9,3.1-4.6,5.4-8.2,7.1s-7.5,2.4-12.1,2.4h-20.1ZM467,36.7h5.8c1.9,0,3.7-.4,5.2-1.1,1.5-.7,2.6-1.9,3.4-3.3s1.2-3.3,1.2-5.3-.4-3.8-1.2-5.3c-.8-1.5-1.9-2.6-3.4-3.3s-3.1-1.1-5.2-1.1h-5.8v19.4h0Z"/>
        <path class="cls-1" d="M537.2,48.4c-3.4,0-6.4-.5-9.2-1.6-2.9-1.1-5.3-2.6-7.3-4.5-2-1.9-3.7-4.2-4.8-6.8s-1.8-5.4-1.8-8.6.5-6,1.8-8.6c1.1-2.6,2.7-4.9,4.8-6.8s4.5-3.4,7.3-4.5,5.8-1.6,9.2-1.6,6.4.5,9.2,1.6c2.9,1.1,5.3,2.6,7.3,4.5,2,1.9,3.7,4.2,4.8,6.8s1.8,5.4,1.8,8.6-.5,6-1.8,8.6c-1.1,2.6-2.7,4.9-4.8,6.8s-4.5,3.4-7.3,4.5-5.8,1.6-9.2,1.6ZM537.1,37.2c1.2,0,2.4-.3,3.5-.7s2-1.1,3-2c.8-.8,1.5-1.9,1.9-3.3.4-1.2.7-2.7.7-4.4s-.3-3-.7-4.4c-.4-1.2-1.1-2.3-1.9-3.3-.8-.8-1.8-1.5-3-2s-2.3-.7-3.5-.7-2.4.3-3.5.7c-1.1.4-2,1.1-3,2-.8.8-1.5,1.9-1.9,3.3s-.7,2.7-.7,4.4.3,3,.7,4.4c.4,1.2,1.1,2.3,1.9,3.3.8.8,1.8,1.5,3,2,1.1.4,2.3.7,3.5.7Z"/>
      </g>
    </g>
  </g>
</svg>