<?xml version="1.0" encoding="UTF-8"?>
<svg xmlns="http://www.w3.org/2000/svg" version="1.1" viewBox="0 0 434.1 171.2">
  <defs>
    <style>
      .cls-1 {
        fill: #206c60;
      }

      .cls-2 {
        fill: #ed7219;
      }
    </style>
  </defs>
  <!-- Generator: Adobe Illustrator 28.6.0, SVG Export Plug-In . SVG Version: 1.2.0 Build 709)  -->
  <g>
    <g id="Capa_1">
      <g id="Capa_11">
        <g>
          <path class="cls-1" d="M55,4v18.2h-17.3v59.1c2.8,3.4-3.2,5.4,0,8.6v7.5c.8,3.3.8,5.3-1.2,7.3,0,0,2,0,1.2.9v26.2h-18.4V53.9c1.2-1.1,1.2-3.1,0-5.8v-25.9H2V4h53Z"/>
          <path class="cls-1" d="M114.1,80.7c0,17.9-8.8,26.9-26.5,26.9s-26.4-9-26.4-26.9v-12c3.2-2,1.2-2,.2-4.2,0-.3,0-.6-.3-1V3.8h18.4v30c0,.3,0,.7-.2,1-.9,1.9-.9,3.9.2,5.3v40.6c0,5.8,2.7,8.7,8,8.7s8.1-2.9,8.1-8.7v-29.9c2.8-2-1.2-4,0-6.4V3.8h18.4v76.9h0Z"/>
          <path class="cls-1" d="M174.6,106.8c0,17.9-8.8,26.9-26.5,26.9s-26.4-9-26.4-26.9V28.6c0-17.9,8.8-26.8,26.4-26.8s26.5,8.9,26.5,26.8v31.3h-18.4v-13.5c-5.6-1.6,8.4-1.6.4-4.3-.3-.4-.4-.7-.4-1.1v-12.5c0-5.7-2.7-8.6-8-8.7h-.1c-5.3,0-7.9,2.9-7.9,8.7v44.5c-1.5,1.6-1.5,3.6,0,5.3v28.3c0,5.8,2.7,8.7,8,8.7s8.1-2.9,8.1-8.7v-20.8h18.4v21h-.1Z"/>
          <path class="cls-1" d="M234.5,106.8c0,17.9-8.8,26.9-26.5,26.9s-26.4-9-26.4-26.9V3.8h18.4v16.9c-3.4,2,.6,4,0,5.3v76.4c0,.3,0,.5-.1.8,2.7,1.5-7.3,1.5,0,3.5v1.4c.4,4.9,3.1,7.3,8,7.3s8.1-2.9,8.1-8.7v-30c.3-1.3.4-2.7.3-4-.3-.4-.3-.8-.3-1.1V3.8h18.4v103h.1Z"/>
          <path class="cls-1" d="M275.5,69.4l-16.3-27.7v41.8c-.6,1.4-.6,3.4,0,5.4v42.8h-17.8V3.9h14.5s2,3.4,4.8,8c.2.3.3.5.3.8-2.5,2.1,3.5,2.1,2.1,3.3.2.3.3.6.5.9,5.5,9.2,11.8,20,11.8,20l19.5-33h14.5v127.8h-17.8v-5c-5.2-1.9,8.8-1.9.2-4.2-.2-.2-.2-.5-.2-.7v-37.3c.5-1.1.7-2.5.4-4.2-.3-.4-.4-.8-.4-1.2v-37.4l-16.3,27.7h.2,0Z"/>
          <path class="cls-1" d="M352.4,74.7v-.9c4.2-3-1.8-3,0-4v-18.8c-.7-4.2-3.3-6.3-7.8-6.3h-.1c-3.7,0-6.2,1.5-7.3,4.3-.2.4-.3.8-.4,1.3-4,2.4,2,2.4-.5,3.6.2.3.2.7.2,1.2v4.8h-18.4v-6.4c0-17.9,8.8-26.8,26.5-26.8s26.4,8.9,26.4,26.8v78.1h-16.5l-1.3-7.9c-3.7,6.6-9.2,9.9-16.5,10-6,0-10.5-2.3-13.6-6.8s-4.6-10.1-4.6-16.6c0-21.5,11.4-33.4,34.1-35.6h-.2ZM352.4,92.2c-8.1,2-13.1,5.7-14.9,11.1-.1.4-.2.8-.4,1.2-.3,1.5-.5,2.8-.5,3.8s.1.7.1,1c.1,4.9,1.4,7.3,3.7,7.3,7.9-.6,11.9-6.5,11.9-17.7v-6.8h0ZM370.8.3l-50.9,6.9v12.3h50.9V.3Z"/>
          <path class="cls-1" d="M379.1,3.8h15.2s1.2,2.2,3.1,5.5l.4.7c-3.1,4.8,6.9.8,2.5,4.5.2.3.4.6.6.8,5.8,10.3,13.4,23.6,13.4,23.6V3.8h17.8v85.3c-.9,1.1-.9,2.2,0,3.1v39.4h-17.8v-59.4s-.4-.7-1.1-2-.4-.7-.5-1c6-4.4-6-.4-2.3-4l-.4-.8c-5.2-9.3-13-23.4-13-23.4v78.1c0,.3,0,.5-.1.8-10.1,3,5.9,3,.1,4.2v7.6h-17.8V3.8h-.1Z"/>
          <path class="cls-1" d="M114.1,121.2l-10.3-10.3-8.1,8.1-8.1-8.1-8.1,8.1-.8-.8-.9-.9c-1.3-.4-3.3-2.4-3.5-3.5l-.6-.6-2.3-2.3-2.1,2.1c-.2.2-.4.4-.5.6,1.7,3.3-4.3,1.3-4.4,4.4l-.6.6c-1.5,1.5-2.7,2.7-2.7,2.7l10.3,10.3,8.1-8.1,8.1,8.1,8.1-8.1,8.1,8.1,3.3-3.3c.2-.2.4-.4.6-.7.9-2.8,2.9-4.8,4.9-4.8l.8-.8.8-.8h0Z"/>
        </g>
      </g>
      <g>
        <path class="cls-2" d="M47.6,170.5v-22.2h-8.8v-7.9h27.8v7.9h-8.8v22.2h-10.2Z"/>
        <path class="cls-2" d="M79.7,170.5v-30.1h10.2v30.1h-10.2Z"/>
        <polygon class="cls-2" points="115.2 162.8 115.2 158.8 127.9 158.8 127.9 151.5 115.2 151.5 115.2 148 129.7 148 129.7 140.3 105.2 140.3 105.2 170.5 130.3 170.5 130.3 162.8 115.2 162.8"/>
        <polygon class="cls-2" points="164.5 140.3 164.5 154 153 140.3 144.7 140.3 144.7 170.5 154.6 170.5 154.6 156.8 166 170.5 174.3 170.5 174.3 140.3 164.5 140.3"/>
        <polygon class="cls-2" points="199.7 162.8 199.7 158.8 212.4 158.8 212.4 151.5 199.7 151.5 199.7 148 214.2 148 214.2 140.3 189.7 140.3 189.7 170.5 214.8 170.5 214.8 162.8 199.7 162.8"/>
        <path class="cls-2" d="M259.1,170.5v-22.2h-8.8v-7.9h27.8v7.9h-8.8v22.2h-10.2Z"/>
        <path class="cls-2" d="M306.6,171.1c-2.5,0-4.7-.4-6.8-1.2-2.1-.8-3.9-1.9-5.4-3.3-1.5-1.4-2.7-3.1-3.5-5-.8-1.9-1.3-4-1.3-6.3s.4-4.4,1.3-6.3c.8-1.9,2-3.6,3.5-5,1.5-1.4,3.3-2.5,5.4-3.3,2.1-.8,4.3-1.2,6.8-1.2s4.7.4,6.8,1.2c2.1.8,3.9,1.9,5.4,3.3,1.5,1.4,2.7,3.1,3.5,5,.8,1.9,1.3,4,1.3,6.3s-.4,4.4-1.3,6.3c-.8,1.9-2,3.6-3.5,5-1.5,1.4-3.3,2.5-5.4,3.3-2.1.8-4.3,1.2-6.8,1.2ZM306.6,162.9c.9,0,1.8-.2,2.6-.5s1.5-.8,2.2-1.5c.6-.6,1.1-1.4,1.4-2.4.3-.9.5-2,.5-3.2s-.2-2.2-.5-3.2c-.3-.9-.8-1.7-1.4-2.4-.6-.6-1.3-1.1-2.2-1.5s-1.7-.5-2.6-.5-1.8.2-2.6.5c-.8.3-1.5.8-2.2,1.5-.6.6-1.1,1.4-1.4,2.4s-.5,2-.5,3.2.2,2.2.5,3.2c.3.9.8,1.7,1.4,2.4.6.6,1.3,1.1,2.2,1.5.8.3,1.7.5,2.6.5Z"/>
        <path class="cls-2" d="M337.7,170.5v-30.1h14.8c3.4,0,6.3.6,8.9,1.8,2.6,1.2,4.5,2.9,6,5.2,1.4,2.2,2.2,4.9,2.2,8s-.7,5.8-2.2,8.1c-1.4,2.3-3.4,4-6,5.2-2.6,1.2-5.5,1.8-8.9,1.8h-14.8ZM347.9,162.5h4.3c1.4,0,2.7-.3,3.8-.8,1.1-.5,1.9-1.4,2.5-2.4s.9-2.4.9-3.9-.3-2.8-.9-3.9c-.6-1.1-1.4-1.9-2.5-2.4-1.1-.5-2.3-.8-3.8-.8h-4.3v14.3Z"/>
        <path class="cls-2" d="M399.6,171.1c-2.5,0-4.7-.4-6.8-1.2-2.1-.8-3.9-1.9-5.4-3.3-1.5-1.4-2.7-3.1-3.5-5-.8-1.9-1.3-4-1.3-6.3s.4-4.4,1.3-6.3c.8-1.9,2-3.6,3.5-5,1.5-1.4,3.3-2.5,5.4-3.3,2.1-.8,4.3-1.2,6.8-1.2s4.7.4,6.8,1.2c2.1.8,3.9,1.9,5.4,3.3,1.5,1.4,2.7,3.1,3.5,5,.8,1.9,1.3,4,1.3,6.3s-.4,4.4-1.3,6.3c-.8,1.9-2,3.6-3.5,5-1.5,1.4-3.3,2.5-5.4,3.3-2.1.8-4.3,1.2-6.8,1.2ZM399.5,162.9c.9,0,1.8-.2,2.6-.5s1.5-.8,2.2-1.5c.6-.6,1.1-1.4,1.4-2.4.3-.9.5-2,.5-3.2s-.2-2.2-.5-3.2c-.3-.9-.8-1.7-1.4-2.4-.6-.6-1.3-1.1-2.2-1.5s-1.7-.5-2.6-.5-1.8.2-2.6.5c-.8.3-1.5.8-2.2,1.5-.6.6-1.1,1.4-1.4,2.4s-.5,2-.5,3.2.2,2.2.5,3.2c.3.9.8,1.7,1.4,2.4.6.6,1.3,1.1,2.2,1.5.8.3,1.7.5,2.6.5Z"/>
      </g>
    </g>
  </g>
</svg>